<?xml version="1.0" encoding="UTF-8" standalone="no"?>
<!DOCTYPE svg PUBLIC "-//W3C//DTD SVG 1.1//EN" "http://www.w3.org/Graphics/SVG/1.1/DTD/svg11.dtd">
<svg width="100%" height="100%" viewBox="0 0 3840 2160" version="1.1" xmlns="http://www.w3.org/2000/svg" xmlns:xlink="http://www.w3.org/1999/xlink" xml:space="preserve" xmlns:serif="http://www.serif.com/" style="fill-rule:evenodd;clip-rule:evenodd;stroke-linecap:round;stroke-miterlimit:10;">
    <rect id="Guards-Lavatory" serif:id="Guards Lavatory" x="3281.34" y="819.708" width="178.805" height="215.255"/>
    <rect id="Commandants-Office" serif:id="Commandants Office" x="3281.34" y="429.742" width="170.474" height="128.3"/>
    <rect id="Adjutants-Office" serif:id="Adjutants Office" x="3455.44" y="429.742" width="186.273" height="128.291"/>
    <path id="Hallway" d="M3460.39,701.193L3460.39,816.894L3281.34,816.894L3281.34,560.859L3448.98,560.859L3448.98,560.847L3457.72,560.859L3460.39,560.859L3460.39,560.863L3642.95,561.12L3642.95,701.193L3460.39,701.193Z"/>
    <path id="Guards-Room" serif:id="Guards Room" d="M3462.15,866.712L3462.15,702.927L3669.66,702.927L3669.66,818.31L3646.18,818.31L3646.18,866.712L3462.15,866.712Z"/>
    <path id="Main-Stairway" serif:id="Main Stairway" d="M3646.14,924.821L3669.66,924.821L3669.66,1035.27L3642.34,1035.27L3642.34,1035.25L3462.15,1035.25L3462.15,868.711L3646.14,868.711L3646.14,924.821Z"/>
    <path id="Cell-Room-North" serif:id="Cell Room North" d="M3061.17,612.247L3061.17,434.116L2371.35,434.116L2371.35,315.164L3145.76,315.164L3145.76,314.909L3277.66,314.909L3277.66,603.702L3277.29,603.702L3277.29,612.247L3061.17,612.247Z"/>
    <path id="Cell-Room-Entrance" serif:id="Cell Room Entrance" d="M3061.17,861.615L3061.17,714.907L2535.21,714.907L2535.21,615.747L3150.43,615.747L3150.43,615.707L3277.29,615.707L3277.29,861.615L3061.17,861.615Z"/>
    <path id="Cell-Room-Center" serif:id="Cell Room Center" d="M2371.39,1005.68L2371.39,615.491L2371.35,615.491L2371.35,437.417L2479.12,437.417L2479.12,614.526L2530.99,614.526L2530.99,1005.68L2371.39,1005.68Z"/>
    <path id="Workshop" d="M781.864,1799.21L781.864,1799.3L643.934,1799.3L643.934,1799.64L480.741,1799.64L480.741,1385.06L643.934,1385.06L643.934,1582.66L850.498,1582.66L850.498,1739.68L850.61,1739.68L850.61,1799.21L781.864,1799.21Z"/>
    <path id="Kitchen" d="M633.642,943.291L1099.14,943.291L1099.14,1127.7L859.124,1127.7L859.124,1277.02L604.136,1277.02L604.136,1276.9L490.302,1276.9L490.302,769.2L633.642,769.2L633.642,943.291Z"/>
    <path id="Cell-Room-South" serif:id="Cell Room South" d="M2532.82,1004.6L2532.82,863.613L3277.29,863.613L3277.29,1013.87L3170.29,1013.87L3170.29,1116.33L3215.82,1116.33L3215.82,1264.31L2576.08,1264.31L2576.08,1116.33L3004.09,1116.33L3004.09,1067.27L3004.82,1067.27L3004.82,1004.6L2532.82,1004.6Z"/>
    <rect id="Cell-Room-South-Passage" serif:id="Cell Room South Passage" x="1763.52" y="1116.88" width="810.938" height="147.433"/>
    <rect id="Cell-Room-Center-Passage" serif:id="Cell Room Center Passage" x="1763.44" y="863.613" width="604.951" height="142.066"/>
    <rect id="Cell-Room-Exit-Left" serif:id="Cell Room Exit Left" x="1607.23" y="790.472" width="152.538" height="473.778"/>
    <rect id="Cell-Room-Exit-Right" serif:id="Cell Room Exit Right" x="1607.23" y="432.045" width="152.538" height="355.846"/>
    <rect id="Basement-Stairway" serif:id="Basement Stairway" x="645.601" y="1363.69" width="204.671" height="218.042"/>
    <rect id="Storage" x="308.128" y="1469.13" width="170.751" height="412.079"/>
    <rect id="Bakery" x="480.741" y="1800.99" width="552.967" height="144.082"/>
    <rect id="Clothing-Room" serif:id="Clothing Room" x="851.61" y="1387.56" width="182.098" height="412.079"/>
    <rect id="Lavatory" x="1035.71" y="1387.56" width="465.463" height="557.51"/>
    <rect id="Pantry" x="635.932" y="769.2" width="232.831" height="172.54"/>
    <rect id="Kitchen-Storage" serif:id="Kitchen Storage" x="340.028" y="823.29" width="147.984" height="412.079"/>
    <rect id="Stockade-Stairway" serif:id="Stockade Stairway" x="860.387" y="1129.01" width="239.093" height="170.751"/>
    <rect id="Overseers-Mess" serif:id="Overseers Mess" x="870.781" y="769.311" width="228.358" height="172.54"/>
    <rect id="Mess-Room" serif:id="Mess Room" x="1101.38" y="769.311" width="382.402" height="507.7"/>
    <rect id="Hospital" x="842.91" y="232.001" width="244.291" height="158.486"/>
    <rect id="Attendants-Room" serif:id="Attendants Room" x="1089.2" y="232.001" width="394.576" height="158.486"/>
    <rect id="Dispel-Room" serif:id="Dispel Room" x="1097.87" y="558.997" width="181.62" height="173.506"/>
    <rect id="Screen-Room" serif:id="Screen Room" x="1281.25" y="558.997" width="202.532" height="173.506"/>
    <rect id="Lecher-Room" serif:id="Lecher Room" x="842.91" y="558.997" width="253.611" height="173.506"/>
    <rect id="Passage" x="842.542" y="392.28" width="640.167" height="165.269"/>
    <rect id="Upper-Lavatory" serif:id="Upper Lavatory" x="331.552" y="279.626" width="194.141" height="388.949"/>
    <rect id="Sick-Ward" serif:id="Sick Ward" x="528.141" y="232.001" width="312.361" height="499.631"/>
    <path id="Cell-Room-Northwest" serif:id="Cell Room Northwest" d="M2368.26,315.372L2368.26,439.828L2368.22,439.828L2368.22,682.9L1765.52,682.9L1765.52,431.071L2201.22,431.071L2201.22,315.372L2368.26,315.372Z"/>
    <rect id="Second-Floor-Hall" serif:id="Second Floor Hall" x="3199.65" y="1385.17" width="537.643" height="209.818"/>
    <rect id="Clerks" x="2956.24" y="1385.17" width="240.591" height="478.906"/>
    <rect id="Telegraph-Office" serif:id="Telegraph Office" x="3199.65" y="1597.36" width="253.811" height="266.716"/>
    <rect id="Record-Room" serif:id="Record Room" x="3455.41" y="1597.36" width="281.211" height="266.463"/>
    <path d="M3565.66,1040.03C3565.66,1038.71 3564.59,1037.64 3563.27,1037.64C3561.95,1037.64 3560.88,1038.71 3560.88,1040.03C3560.88,1041.35 3561.95,1042.42 3563.27,1042.42C3564.59,1042.42 3565.66,1041.35 3565.66,1040.03Z" style="fill:none;stroke:rgb(251,251,251);stroke-opacity:0.41;stroke-width:4.78px;"/>
    <path d="M3565.66,1381.99C3565.66,1383.31 3564.59,1384.38 3563.27,1384.38C3561.95,1384.38 3560.88,1383.31 3560.88,1381.99C3560.88,1380.67 3561.95,1379.6 3563.27,1379.6C3564.59,1379.6 3565.66,1380.67 3565.66,1381.99Z" style="fill:none;stroke:rgb(251,251,251);stroke-opacity:0.41;stroke-width:4.78px;"/>
    <path d="M3560.88,1042.42C3560.88,1041.11 3561.95,1040.03 3563.27,1040.03C3564.59,1040.03 3565.66,1041.11 3565.66,1042.42L3565.66,1044.83C3565.66,1046.15 3564.59,1047.22 3563.27,1047.22C3561.95,1047.22 3560.88,1046.15 3560.88,1044.83L3560.88,1042.42ZM3560.88,1049.65C3560.88,1048.33 3561.95,1047.26 3563.27,1047.26C3564.59,1047.26 3565.66,1048.33 3565.66,1049.65L3565.66,1054.47C3565.66,1055.79 3564.59,1056.86 3563.27,1056.86C3561.95,1056.86 3560.88,1055.79 3560.88,1054.47L3560.88,1049.65ZM3560.88,1059.28C3560.88,1057.96 3561.95,1056.89 3563.27,1056.89C3564.59,1056.89 3565.66,1057.96 3565.66,1059.28L3565.66,1064.1C3565.66,1065.42 3564.59,1066.49 3563.27,1066.49C3561.95,1066.49 3560.88,1065.42 3560.88,1064.1L3560.88,1059.28ZM3560.88,1068.92C3560.88,1067.6 3561.95,1066.53 3563.27,1066.53C3564.59,1066.53 3565.66,1067.6 3565.66,1068.92L3565.66,1073.73C3565.66,1075.05 3564.59,1076.12 3563.27,1076.12C3561.95,1076.12 3560.88,1075.05 3560.88,1073.73L3560.88,1068.92ZM3560.88,1078.55C3560.88,1077.23 3561.95,1076.16 3563.27,1076.16C3564.59,1076.16 3565.66,1077.23 3565.66,1078.55L3565.66,1083.37C3565.66,1084.69 3564.59,1085.76 3563.27,1085.76C3561.95,1085.76 3560.88,1084.69 3560.88,1083.37L3560.88,1078.55ZM3560.88,1088.18C3560.88,1086.86 3561.95,1085.79 3563.27,1085.79C3564.59,1085.79 3565.66,1086.86 3565.66,1088.18L3565.66,1093C3565.66,1094.32 3564.59,1095.39 3563.27,1095.39C3561.95,1095.39 3560.88,1094.32 3560.88,1093L3560.88,1088.18ZM3560.88,1097.82C3560.88,1096.5 3561.95,1095.42 3563.27,1095.42C3564.59,1095.42 3565.66,1096.5 3565.66,1097.82L3565.66,1102.63C3565.66,1103.95 3564.59,1105.03 3563.27,1105.03C3561.95,1105.03 3560.88,1103.95 3560.88,1102.63L3560.88,1097.82ZM3560.88,1107.45C3560.88,1106.13 3561.95,1105.06 3563.27,1105.06C3564.59,1105.06 3565.66,1106.13 3565.66,1107.45L3565.66,1112.27C3565.66,1113.59 3564.59,1114.66 3563.27,1114.66C3561.95,1114.66 3560.88,1113.59 3560.88,1112.27L3560.88,1107.45ZM3560.88,1117.08C3560.88,1115.76 3561.95,1114.69 3563.27,1114.69C3564.59,1114.69 3565.66,1115.76 3565.66,1117.08L3565.66,1121.9C3565.66,1123.22 3564.59,1124.29 3563.27,1124.29C3561.95,1124.29 3560.88,1123.22 3560.88,1121.9L3560.88,1117.08ZM3560.88,1126.72C3560.88,1125.4 3561.95,1124.33 3563.27,1124.33C3564.59,1124.33 3565.66,1125.4 3565.66,1126.72L3565.66,1131.53C3565.66,1132.85 3564.59,1133.92 3563.27,1133.92C3561.95,1133.92 3560.88,1132.85 3560.88,1131.53L3560.88,1126.72ZM3560.88,1136.35C3560.88,1135.03 3561.95,1133.96 3563.27,1133.96C3564.59,1133.96 3565.66,1135.03 3565.66,1136.35L3565.66,1141.17C3565.66,1142.49 3564.59,1143.56 3563.27,1143.56C3561.95,1143.56 3560.88,1142.49 3560.88,1141.17L3560.88,1136.35ZM3560.88,1145.98C3560.88,1144.66 3561.95,1143.59 3563.27,1143.59C3564.59,1143.59 3565.66,1144.66 3565.66,1145.98L3565.66,1150.8C3565.66,1152.12 3564.59,1153.19 3563.27,1153.19C3561.95,1153.19 3560.88,1152.12 3560.88,1150.8L3560.88,1145.98ZM3560.88,1155.62C3560.88,1154.3 3561.95,1153.23 3563.27,1153.23C3564.59,1153.23 3565.66,1154.3 3565.66,1155.62L3565.66,1160.43C3565.66,1161.75 3564.59,1162.83 3563.27,1162.83C3561.95,1162.83 3560.88,1161.75 3560.88,1160.43L3560.88,1155.62ZM3560.88,1165.25C3560.88,1163.93 3561.95,1162.86 3563.27,1162.86C3564.59,1162.86 3565.66,1163.93 3565.66,1165.25L3565.66,1170.07C3565.66,1171.39 3564.59,1172.46 3563.27,1172.46C3561.95,1172.46 3560.88,1171.39 3560.88,1170.07L3560.88,1165.25ZM3560.88,1174.88C3560.88,1173.57 3561.95,1172.49 3563.27,1172.49C3564.59,1172.49 3565.66,1173.57 3565.66,1174.88L3565.66,1179.7C3565.66,1181.02 3564.59,1182.09 3563.27,1182.09C3561.95,1182.09 3560.88,1181.02 3560.88,1179.7L3560.88,1174.88ZM3560.88,1184.52C3560.88,1183.2 3561.95,1182.13 3563.27,1182.13C3564.59,1182.13 3565.66,1183.2 3565.66,1184.52L3565.66,1189.34C3565.66,1190.65 3564.59,1191.73 3563.27,1191.73C3561.95,1191.73 3560.88,1190.65 3560.88,1189.34L3560.88,1184.52ZM3560.88,1194.15C3560.88,1192.83 3561.95,1191.76 3563.27,1191.76C3564.59,1191.76 3565.66,1192.83 3565.66,1194.15L3565.66,1198.97C3565.66,1200.29 3564.59,1201.36 3563.27,1201.36C3561.95,1201.36 3560.88,1200.29 3560.88,1198.97L3560.88,1194.15ZM3560.88,1203.78C3560.88,1202.46 3561.95,1201.39 3563.27,1201.39C3564.59,1201.39 3565.66,1202.46 3565.66,1203.78L3565.66,1208.6C3565.66,1209.92 3564.59,1210.99 3563.27,1210.99C3561.95,1210.99 3560.88,1209.92 3560.88,1208.6L3560.88,1203.78ZM3560.88,1213.42C3560.88,1212.1 3561.95,1211.03 3563.27,1211.03C3564.59,1211.03 3565.66,1212.1 3565.66,1213.42L3565.66,1218.24C3565.66,1219.56 3564.59,1220.63 3563.27,1220.63C3561.95,1220.63 3560.88,1219.56 3560.88,1218.24L3560.88,1213.42ZM3560.88,1223.05C3560.88,1221.73 3561.95,1220.66 3563.27,1220.66C3564.59,1220.66 3565.66,1221.73 3565.66,1223.05L3565.66,1227.87C3565.66,1229.19 3564.59,1230.26 3563.27,1230.26C3561.95,1230.26 3560.88,1229.19 3560.88,1227.87L3560.88,1223.05ZM3560.88,1232.68C3560.88,1231.37 3561.95,1230.29 3563.27,1230.29C3564.59,1230.29 3565.66,1231.37 3565.66,1232.68L3565.66,1237.5C3565.66,1238.82 3564.59,1239.89 3563.27,1239.89C3561.95,1239.89 3560.88,1238.82 3560.88,1237.5L3560.88,1232.68ZM3560.88,1242.32C3560.88,1241 3561.95,1239.93 3563.27,1239.93C3564.59,1239.93 3565.66,1241 3565.66,1242.32L3565.66,1247.14C3565.66,1248.45 3564.59,1249.53 3563.27,1249.53C3561.95,1249.53 3560.88,1248.45 3560.88,1247.14L3560.88,1242.32ZM3560.88,1251.95C3560.88,1250.63 3561.95,1249.56 3563.27,1249.56C3564.59,1249.56 3565.66,1250.63 3565.66,1251.95L3565.66,1256.77C3565.66,1258.09 3564.59,1259.16 3563.27,1259.16C3561.95,1259.16 3560.88,1258.09 3560.88,1256.77L3560.88,1251.95ZM3560.88,1261.59C3560.88,1260.27 3561.95,1259.19 3563.27,1259.19C3564.59,1259.19 3565.66,1260.27 3565.66,1261.59L3565.66,1266.4C3565.66,1267.72 3564.59,1268.79 3563.27,1268.79C3561.95,1268.79 3560.88,1267.72 3560.88,1266.4L3560.88,1261.59ZM3560.88,1271.22C3560.88,1269.9 3561.95,1268.83 3563.27,1268.83C3564.59,1268.83 3565.66,1269.9 3565.66,1271.22L3565.66,1276.04C3565.66,1277.36 3564.59,1278.43 3563.27,1278.43C3561.95,1278.43 3560.88,1277.36 3560.88,1276.04L3560.88,1271.22ZM3560.88,1280.85C3560.88,1279.53 3561.95,1278.46 3563.27,1278.46C3564.59,1278.46 3565.66,1279.53 3565.66,1280.85L3565.66,1285.67C3565.66,1286.99 3564.59,1288.06 3563.27,1288.06C3561.95,1288.06 3560.88,1286.99 3560.88,1285.67L3560.88,1280.85ZM3560.88,1290.49C3560.88,1289.17 3561.95,1288.09 3563.27,1288.09C3564.59,1288.09 3565.66,1289.17 3565.66,1290.49L3565.66,1295.3C3565.66,1296.62 3564.59,1297.69 3563.27,1297.69C3561.95,1297.69 3560.88,1296.62 3560.88,1295.3L3560.88,1290.49ZM3560.88,1300.12C3560.88,1298.8 3561.95,1297.73 3563.27,1297.73C3564.59,1297.73 3565.66,1298.8 3565.66,1300.12L3565.66,1304.94C3565.66,1306.26 3564.59,1307.33 3563.27,1307.33C3561.95,1307.33 3560.88,1306.26 3560.88,1304.94L3560.88,1300.12ZM3560.88,1309.75C3560.88,1308.43 3561.95,1307.36 3563.27,1307.36C3564.59,1307.36 3565.66,1308.43 3565.66,1309.75L3565.66,1314.57C3565.66,1315.89 3564.59,1316.96 3563.27,1316.96C3561.95,1316.96 3560.88,1315.89 3560.88,1314.57L3560.88,1309.75ZM3560.88,1319.39C3560.88,1318.07 3561.95,1316.99 3563.27,1316.99C3564.59,1316.99 3565.66,1318.07 3565.66,1319.39L3565.66,1324.2C3565.66,1325.52 3564.59,1326.59 3563.27,1326.59C3561.95,1326.59 3560.88,1325.52 3560.88,1324.2L3560.88,1319.39ZM3560.88,1329.02C3560.88,1327.7 3561.95,1326.63 3563.27,1326.63C3564.59,1326.63 3565.66,1327.7 3565.66,1329.02L3565.66,1333.84C3565.66,1335.16 3564.59,1336.23 3563.27,1336.23C3561.95,1336.23 3560.88,1335.16 3560.88,1333.84L3560.88,1329.02ZM3560.88,1338.65C3560.88,1337.33 3561.95,1336.26 3563.27,1336.26C3564.59,1336.26 3565.66,1337.33 3565.66,1338.65L3565.66,1343.47C3565.66,1344.79 3564.59,1345.86 3563.27,1345.86C3561.95,1345.86 3560.88,1344.79 3560.88,1343.47L3560.88,1338.65ZM3560.88,1348.29C3560.88,1346.97 3561.95,1345.89 3563.27,1345.89C3564.59,1345.89 3565.66,1346.97 3565.66,1348.29L3565.66,1353.1C3565.66,1354.42 3564.59,1355.5 3563.27,1355.5C3561.95,1355.5 3560.88,1354.42 3560.88,1353.1L3560.88,1348.29ZM3560.88,1357.92C3560.88,1356.6 3561.95,1355.53 3563.27,1355.53C3564.59,1355.53 3565.66,1356.6 3565.66,1357.92L3565.66,1362.74C3565.66,1364.06 3564.59,1365.13 3563.27,1365.13C3561.95,1365.13 3560.88,1364.06 3560.88,1362.74L3560.88,1357.92ZM3560.88,1367.55C3560.88,1366.23 3561.95,1365.16 3563.27,1365.16C3564.59,1365.16 3565.66,1366.23 3565.66,1367.55L3565.66,1372.37C3565.66,1373.69 3564.59,1374.76 3563.27,1374.76C3561.95,1374.76 3560.88,1373.69 3560.88,1372.37L3560.88,1367.55ZM3560.88,1377.19C3560.88,1375.87 3561.95,1374.8 3563.27,1374.8C3564.59,1374.8 3565.66,1375.87 3565.66,1377.19L3565.66,1379.6C3565.66,1380.91 3564.59,1381.99 3563.27,1381.99C3561.95,1381.99 3560.88,1380.91 3560.88,1379.6L3560.88,1377.19Z" style="fill:rgb(251,251,251);fill-opacity:0.41;"/>
    <path d="M1602.45,1019.62C1603.77,1019.62 1604.84,1018.55 1604.84,1017.23C1604.84,1015.91 1603.76,1014.84 1602.44,1014.84C1601.12,1014.84 1600.05,1015.92 1600.06,1017.24C1600.06,1018.56 1601.13,1019.63 1602.45,1019.62Z" style="fill:none;stroke:rgb(251,251,251);stroke-opacity:0.41;stroke-width:4.78px;"/>
    <path d="M1488.57,1019.8C1487.25,1019.8 1486.18,1018.73 1486.17,1017.41C1486.17,1016.09 1487.24,1015.02 1488.56,1015.02C1489.88,1015.02 1490.95,1016.09 1490.96,1017.41C1490.96,1018.73 1489.89,1019.8 1488.57,1019.8Z" style="fill:none;stroke:rgb(251,251,251);stroke-opacity:0.41;stroke-width:4.78px;"/>
    <path d="M1600.05,1014.84C1601.37,1014.84 1602.44,1015.91 1602.45,1017.23C1602.45,1018.55 1601.38,1019.62 1600.06,1019.63L1597.58,1019.63C1596.26,1019.63 1595.19,1018.56 1595.18,1017.24C1595.18,1015.92 1596.25,1014.85 1597.57,1014.85L1600.05,1014.84ZM1592.61,1014.86C1593.93,1014.85 1595.01,1015.92 1595.01,1017.24C1595.01,1018.56 1593.94,1019.64 1592.62,1019.64L1587.66,1019.65C1586.34,1019.65 1585.27,1018.58 1585.27,1017.26C1585.26,1015.94 1586.33,1014.87 1587.65,1014.86L1592.61,1014.86ZM1582.69,1014.87C1584.02,1014.87 1585.09,1015.94 1585.09,1017.26C1585.09,1018.58 1584.02,1019.65 1582.7,1019.65L1577.74,1019.66C1576.42,1019.66 1575.35,1018.59 1575.35,1017.27C1575.35,1015.95 1576.42,1014.88 1577.74,1014.88L1582.69,1014.87ZM1572.78,1014.89C1574.1,1014.88 1575.17,1015.96 1575.17,1017.27C1575.17,1018.6 1574.1,1019.67 1572.78,1019.67L1567.83,1019.68C1566.51,1019.68 1565.43,1018.61 1565.43,1017.29C1565.43,1015.97 1566.5,1014.9 1567.82,1014.89L1572.78,1014.89ZM1562.86,1014.9C1564.18,1014.9 1565.25,1015.97 1565.25,1017.29C1565.26,1018.61 1564.19,1019.68 1562.87,1019.69L1557.91,1019.69C1556.59,1019.7 1555.51,1018.62 1555.51,1017.31C1555.51,1015.99 1556.58,1014.91 1557.9,1014.91L1562.86,1014.9ZM1552.94,1014.92C1554.26,1014.92 1555.33,1015.99 1555.34,1017.31C1555.34,1018.63 1554.27,1019.7 1552.95,1019.7L1547.99,1019.71C1546.67,1019.71 1545.6,1018.64 1545.59,1017.32C1545.59,1016 1546.66,1014.93 1547.98,1014.93L1552.94,1014.92ZM1543.02,1014.93C1544.34,1014.93 1545.42,1016 1545.42,1017.32C1545.42,1018.64 1544.35,1019.72 1543.03,1019.72L1538.07,1019.72C1536.75,1019.73 1535.68,1018.66 1535.68,1017.34C1535.67,1016.02 1536.74,1014.94 1538.06,1014.94L1543.02,1014.93ZM1533.11,1014.95C1534.42,1014.95 1535.5,1016.02 1535.5,1017.34C1535.5,1018.66 1534.43,1019.73 1533.11,1019.73L1528.15,1019.74C1526.83,1019.74 1525.76,1018.67 1525.76,1017.35C1525.76,1016.03 1526.83,1014.96 1528.15,1014.96L1533.11,1014.95ZM1523.19,1014.97C1524.51,1014.96 1525.58,1016.03 1525.58,1017.35C1525.58,1018.67 1524.51,1019.75 1523.19,1019.75L1518.24,1019.76C1516.91,1019.76 1515.84,1018.69 1515.84,1017.37C1515.84,1016.05 1516.91,1014.98 1518.23,1014.97L1523.19,1014.97ZM1513.27,1014.98C1514.59,1014.98 1515.66,1016.05 1515.66,1017.37C1515.67,1018.69 1514.6,1019.76 1513.28,1019.76L1508.32,1019.77C1507,1019.77 1505.92,1018.7 1505.92,1017.38C1505.92,1016.06 1506.99,1014.99 1508.31,1014.99L1513.27,1014.98ZM1503.35,1015C1504.67,1014.99 1505.74,1016.06 1505.75,1017.38C1505.75,1018.7 1504.68,1019.78 1503.36,1019.78L1498.4,1019.79C1497.08,1019.79 1496.01,1018.72 1496,1017.4C1496,1016.08 1497.07,1015.01 1498.39,1015L1503.35,1015ZM1493.43,1015.01C1494.75,1015.01 1495.83,1016.08 1495.83,1017.4C1495.83,1018.72 1494.76,1019.79 1493.44,1019.8L1490.96,1019.8C1489.64,1019.8 1488.57,1018.73 1488.57,1017.41C1488.56,1016.09 1489.63,1015.02 1490.95,1015.01L1493.43,1015.01Z" style="fill:rgb(251,251,251);fill-opacity:0.41;"/>
    <path d="M1602.45,496.089C1603.77,496.087 1604.84,495.013 1604.84,493.693C1604.84,492.373 1603.76,491.303 1602.44,491.305C1601.12,491.308 1600.05,492.381 1600.06,493.701C1600.06,495.021 1601.13,496.091 1602.45,496.089Z" style="fill:none;stroke:rgb(251,251,251);stroke-opacity:0.41;stroke-width:4.78px;"/>
    <path d="M1488.57,496.267C1487.25,496.269 1486.18,495.199 1486.17,493.88C1486.17,492.56 1487.24,491.486 1488.56,491.484C1489.88,491.482 1490.95,492.552 1490.96,493.872C1490.96,495.192 1489.89,496.265 1488.57,496.267Z" style="fill:none;stroke:rgb(251,251,251);stroke-opacity:0.41;stroke-width:4.78px;"/>
    <path d="M1600.05,491.309C1601.37,491.307 1602.44,492.377 1602.45,493.697C1602.45,495.017 1601.38,496.09 1600.06,496.092L1597.58,496.096C1596.26,496.098 1595.19,495.028 1595.18,493.708C1595.18,492.388 1596.25,491.315 1597.57,491.313L1600.05,491.309ZM1592.61,491.321C1593.93,491.319 1595.01,492.389 1595.01,493.709C1595.01,495.029 1593.94,496.102 1592.62,496.104L1587.66,496.112C1586.34,496.114 1585.27,495.044 1585.27,493.724C1585.26,492.404 1586.33,491.331 1587.65,491.329L1592.61,491.321ZM1582.69,491.336C1584.02,491.334 1585.09,492.404 1585.09,493.724C1585.09,495.044 1584.02,496.118 1582.7,496.12L1577.74,496.127C1576.42,496.129 1575.35,495.06 1575.35,493.74C1575.35,492.42 1576.42,491.346 1577.74,491.344L1582.69,491.336ZM1572.78,491.352C1574.1,491.35 1575.17,492.42 1575.17,493.74C1575.17,495.06 1574.1,496.133 1572.78,496.135L1567.83,496.143C1566.51,496.145 1565.43,495.075 1565.43,493.755C1565.43,492.435 1566.5,491.362 1567.82,491.36L1572.78,491.352ZM1562.86,491.368C1564.18,491.366 1565.25,492.435 1565.25,493.755C1565.26,495.075 1564.19,496.149 1562.87,496.151L1557.91,496.159C1556.59,496.161 1555.51,495.091 1555.51,493.771C1555.51,492.451 1556.58,491.377 1557.9,491.375L1562.86,491.368ZM1552.94,491.383C1554.26,491.381 1555.33,492.451 1555.34,493.771C1555.34,495.091 1554.27,496.164 1552.95,496.166L1547.99,496.174C1546.67,496.176 1545.6,495.106 1545.59,493.786C1545.59,492.466 1546.66,491.393 1547.98,491.391L1552.94,491.383ZM1543.02,491.399C1544.34,491.397 1545.42,492.467 1545.42,493.787C1545.42,495.106 1544.35,496.18 1543.03,496.182L1538.07,496.19C1536.75,496.192 1535.68,495.122 1535.68,493.802C1535.67,492.482 1536.74,491.409 1538.06,491.407L1543.02,491.399ZM1533.11,491.414C1534.42,491.412 1535.5,492.482 1535.5,493.802C1535.5,495.122 1534.43,496.195 1533.11,496.197L1528.15,496.205C1526.83,496.207 1525.76,495.137 1525.76,493.817C1525.76,492.497 1526.83,491.424 1528.15,491.422L1533.11,491.414ZM1523.19,491.43C1524.51,491.428 1525.58,492.498 1525.58,493.818C1525.58,495.138 1524.51,496.211 1523.19,496.213L1518.24,496.221C1516.91,496.223 1515.84,495.153 1515.84,493.833C1515.84,492.513 1516.91,491.44 1518.23,491.438L1523.19,491.43ZM1513.27,491.445C1514.59,491.443 1515.66,492.513 1515.66,493.833C1515.67,495.153 1514.6,496.226 1513.28,496.229L1508.32,496.236C1507,496.238 1505.92,495.168 1505.92,493.849C1505.92,492.529 1506.99,491.455 1508.31,491.453L1513.27,491.445ZM1503.35,491.461C1504.67,491.459 1505.74,492.529 1505.75,493.849C1505.75,495.169 1504.68,496.242 1503.36,496.244L1498.4,496.252C1497.08,496.254 1496.01,495.184 1496,493.864C1496,492.544 1497.07,491.471 1498.39,491.469L1503.35,491.461ZM1493.43,491.477C1494.75,491.474 1495.83,492.544 1495.83,493.864C1495.83,495.184 1494.76,496.258 1493.44,496.26L1490.96,496.264C1489.64,496.266 1488.57,495.196 1488.57,493.876C1488.56,492.556 1489.63,491.483 1490.95,491.48L1493.43,491.477Z" style="fill:rgb(251,251,251);fill-opacity:0.41;"/>
    <path d="M973.512,1303.38C974.78,1303.02 975.514,1301.69 975.15,1300.42C974.785,1299.15 973.46,1298.42 972.191,1298.78C970.922,1299.15 970.188,1300.47 970.553,1301.74C970.917,1303.01 972.243,1303.75 973.512,1303.38Z" style="fill:none;stroke:rgb(251,251,251);stroke-opacity:0.41;stroke-width:4.78px;"/>
    <path d="M760.18,1364.67C758.911,1365.03 757.586,1364.3 757.221,1363.03C756.857,1361.76 757.591,1360.43 758.859,1360.07C760.128,1359.71 761.454,1360.44 761.818,1361.71C762.183,1362.98 761.449,1364.3 760.18,1364.67Z" style="fill:none;stroke:rgb(251,251,251);stroke-opacity:0.41;stroke-width:4.78px;"/>
    <path d="M969.892,1299.44C971.161,1299.08 972.487,1299.81 972.851,1301.08C973.216,1302.35 972.482,1303.68 971.213,1304.04L968.841,1304.72C967.572,1305.09 966.246,1304.35 965.882,1303.08C965.518,1301.82 966.252,1300.49 967.52,1300.12L969.892,1299.44ZM962.776,1301.49C964.045,1301.12 965.371,1301.86 965.735,1303.13C966.1,1304.39 965.366,1305.72 964.097,1306.09L959.353,1307.45C958.084,1307.81 956.759,1307.08 956.394,1305.81C956.03,1304.54 956.764,1303.21 958.032,1302.85L962.776,1301.49ZM953.288,1304.21C954.557,1303.85 955.883,1304.58 956.247,1305.85C956.612,1307.12 955.878,1308.45 954.609,1308.81L949.865,1310.17C948.596,1310.54 947.271,1309.8 946.906,1308.54C946.542,1307.27 947.276,1305.94 948.544,1305.58L953.288,1304.21ZM943.8,1306.94C945.069,1306.58 946.395,1307.31 946.759,1308.58C947.124,1309.85 946.39,1311.17 945.121,1311.54L940.377,1312.9C939.109,1313.26 937.783,1312.53 937.418,1311.26C937.054,1309.99 937.788,1308.67 939.057,1308.3L943.8,1306.94ZM934.313,1309.66C935.581,1309.3 936.907,1310.04 937.272,1311.3C937.636,1312.57 936.902,1313.9 935.633,1314.26L930.889,1315.62C929.621,1315.99 928.295,1315.26 927.93,1313.99C927.566,1312.72 928.3,1311.39 929.569,1311.03L934.313,1309.66ZM924.825,1312.39C926.093,1312.03 927.419,1312.76 927.784,1314.03C928.148,1315.3 927.414,1316.62 926.145,1316.99L921.401,1318.35C920.133,1318.71 918.807,1317.98 918.442,1316.71C918.078,1315.44 918.812,1314.12 920.081,1313.75L924.825,1312.39ZM915.337,1315.12C916.605,1314.75 917.931,1315.49 918.296,1316.76C918.66,1318.02 917.926,1319.35 916.657,1319.71L911.913,1321.08C910.645,1321.44 909.319,1320.71 908.954,1319.44C908.59,1318.17 909.324,1316.84 910.593,1316.48L915.337,1315.12ZM905.849,1317.84C907.117,1317.48 908.443,1318.21 908.808,1319.48C909.172,1320.75 908.438,1322.08 907.17,1322.44L902.426,1323.8C901.157,1324.17 899.831,1323.43 899.467,1322.16C899.102,1320.9 899.836,1319.57 901.105,1319.2L905.849,1317.84ZM896.361,1320.57C897.63,1320.2 898.955,1320.94 899.32,1322.21C899.684,1323.48 898.95,1324.8 897.682,1325.16L892.938,1326.53C891.669,1326.89 890.343,1326.16 889.979,1324.89C889.614,1323.62 890.348,1322.3 891.617,1321.93L896.361,1320.57ZM886.873,1323.29C888.142,1322.93 889.468,1323.66 889.832,1324.93C890.197,1326.2 889.463,1327.53 888.194,1327.89L883.45,1329.25C882.181,1329.62 880.855,1328.88 880.491,1327.62C880.126,1326.35 880.861,1325.02 882.129,1324.66L886.873,1323.29ZM877.385,1326.02C878.654,1325.65 879.979,1326.39 880.344,1327.66C880.708,1328.93 879.974,1330.25 878.706,1330.62L873.962,1331.98C872.693,1332.34 871.367,1331.61 871.003,1330.34C870.638,1329.07 871.373,1327.75 872.641,1327.38L877.385,1326.02ZM867.897,1328.75C869.166,1328.38 870.492,1329.12 870.856,1330.38C871.221,1331.65 870.487,1332.98 869.218,1333.34L864.474,1334.7C863.205,1335.07 861.88,1334.34 861.515,1333.07C861.151,1331.8 861.885,1330.47 863.153,1330.11L867.897,1328.75ZM858.409,1331.47C859.678,1331.11 861.004,1331.84 861.368,1333.11C861.733,1334.38 860.998,1335.7 859.73,1336.07L854.986,1337.43C853.717,1337.8 852.391,1337.06 852.027,1335.79C851.662,1334.52 852.396,1333.2 853.665,1332.83L858.409,1331.47ZM848.921,1334.2C850.19,1333.83 851.516,1334.57 851.88,1335.84C852.245,1337.1 851.511,1338.43 850.242,1338.79L845.498,1340.16C844.229,1340.52 842.904,1339.79 842.539,1338.52C842.175,1337.25 842.909,1335.92 844.177,1335.56L848.921,1334.2ZM839.433,1336.92C840.702,1336.56 842.028,1337.29 842.392,1338.56C842.757,1339.83 842.022,1341.16 840.754,1341.52L836.01,1342.88C834.741,1343.25 833.415,1342.51 833.051,1341.25C832.686,1339.98 833.42,1338.65 834.689,1338.29L839.433,1336.92ZM829.946,1339.65C831.214,1339.28 832.54,1340.02 832.904,1341.29C833.269,1342.56 832.535,1343.88 831.266,1344.25L826.522,1345.61C825.254,1345.97 823.928,1345.24 823.563,1343.97C823.199,1342.7 823.933,1341.38 825.202,1341.01L829.946,1339.65ZM820.457,1342.37C821.726,1342.01 823.052,1342.74 823.416,1344.01C823.781,1345.28 823.047,1346.61 821.778,1346.97L817.034,1348.33C815.766,1348.7 814.44,1347.96 814.075,1346.7C813.711,1345.43 814.445,1344.1 815.713,1343.74L820.457,1342.37ZM810.97,1345.1C812.238,1344.74 813.564,1345.47 813.929,1346.74C814.293,1348.01 813.559,1349.33 812.29,1349.7L807.546,1351.06C806.278,1351.42 804.952,1350.69 804.587,1349.42C804.223,1348.15 804.957,1346.83 806.226,1346.46L810.97,1345.1ZM801.481,1347.83C802.75,1347.46 804.076,1348.19 804.44,1349.46C804.805,1350.73 804.071,1352.06 802.802,1352.42L798.058,1353.79C796.79,1354.15 795.464,1353.42 795.099,1352.15C794.735,1350.88 795.469,1349.55 796.738,1349.19L801.481,1347.83ZM791.994,1350.55C793.262,1350.19 794.588,1350.92 794.953,1352.19C795.317,1353.46 794.583,1354.78 793.315,1355.15L788.571,1356.51C787.302,1356.88 785.976,1356.14 785.612,1354.87C785.247,1353.61 785.981,1352.28 787.25,1351.91L791.994,1350.55ZM782.506,1353.28C783.775,1352.91 785.1,1353.65 785.465,1354.92C785.829,1356.18 785.095,1357.51 783.827,1357.88L779.083,1359.24C777.814,1359.6 776.488,1358.87 776.124,1357.6C775.759,1356.33 776.493,1355.01 777.762,1354.64L782.506,1353.28ZM773.018,1356C774.287,1355.64 775.613,1356.37 775.977,1357.64C776.341,1358.91 775.607,1360.24 774.339,1360.6L769.595,1361.96C768.326,1362.33 767,1361.59 766.636,1360.33C766.271,1359.06 767.005,1357.73 768.274,1357.37L773.018,1356ZM763.53,1358.73C764.799,1358.36 766.125,1359.1 766.489,1360.37C766.853,1361.64 766.119,1362.96 764.851,1363.33L762.479,1364.01C761.21,1364.37 759.884,1363.64 759.52,1362.37C759.155,1361.1 759.889,1359.78 761.158,1359.41L763.53,1358.73Z" style="fill:rgb(251,251,251);fill-opacity:0.41;"/>
</svg>
