<?xml version="1.0" encoding="UTF-8" standalone="no"?>
<!DOCTYPE svg PUBLIC "-//W3C//DTD SVG 1.1//EN" "http://www.w3.org/Graphics/SVG/1.1/DTD/svg11.dtd">
<svg width="100%" height="100%" viewBox="0 0 3840 2160" version="1.1" xmlns="http://www.w3.org/2000/svg" xmlns:xlink="http://www.w3.org/1999/xlink" xml:space="preserve" xmlns:serif="http://www.serif.com/" style="fill-rule:evenodd;clip-rule:evenodd;stroke-linecap:round;stroke-miterlimit:10;">
    <rect id="Guards-Lavatory" serif:id="Guards Lavatory" x="3281.34" y="819.708" width="178.805" height="215.255"/>
    <rect id="Commandants-Office" serif:id="Commandants Office" x="3281.34" y="429.742" width="170.474" height="128.3"/>
    <rect id="Adjutants-Office" serif:id="Adjutants Office" x="3455.44" y="429.742" width="186.273" height="128.291"/>
    <path id="Hallway" d="M3460.39,701.193L3460.39,816.894L3281.34,816.894L3281.34,560.859L3448.98,560.859L3448.98,560.847L3457.72,560.859L3460.39,560.859L3460.39,560.863L3642.95,561.12L3642.95,701.193L3460.39,701.193Z"/>
    <path id="Guards-Room" serif:id="Guards Room" d="M3462.15,866.712L3462.15,702.927L3669.66,702.927L3669.66,818.31L3646.18,818.31L3646.18,866.712L3462.15,866.712Z"/>
    <path id="Main-Stairway" serif:id="Main Stairway" d="M3646.14,924.821L3669.66,924.821L3669.66,1035.27L3642.34,1035.27L3642.34,1035.25L3462.15,1035.25L3462.15,868.711L3646.14,868.711L3646.14,924.821Z"/>
    <path id="Cell-Room-North" serif:id="Cell Room North" d="M3061.17,612.247L3061.17,434.116L2371.35,434.116L2371.35,315.164L3145.76,315.164L3145.76,314.909L3277.66,314.909L3277.72,612.455L3061.17,612.247Z"/>
    <path id="Cell-Room-Entrance" serif:id="Cell Room Entrance" d="M3061.17,861.615L3061.17,714.907L2535.21,714.907L2535.21,615.747L3150.43,615.747L3150.43,615.707L3277.29,615.707L3277.29,861.615L3061.17,861.615Z"/>
    <path id="Cell-Room-Center" serif:id="Cell Room Center" d="M2371.39,1005.68L2371.39,615.491L2371.35,615.491L2371.35,437.417L2479.12,437.417L2479.12,614.526L2530.99,614.526L2530.99,1005.68L2371.39,1005.68Z"/>
    <path id="Workshop" d="M781.864,1799.21L781.864,1799.3L643.934,1799.3L643.934,1799.64L480.741,1799.64L480.741,1385.06L643.934,1385.06L643.934,1582.66L850.498,1582.66L850.498,1739.68L850.61,1739.68L850.61,1799.21L781.864,1799.21Z"/>
    <path id="Kitchen" d="M633.642,943.291L1099.14,943.291L1099.14,1127.7L859.124,1127.7L859.124,1277.02L604.136,1277.02L604.136,1276.9L490.302,1276.9L490.302,769.2L633.642,769.2L633.642,943.291Z"/>
    <path id="Cell-Room-South" serif:id="Cell Room South" d="M2532.82,1004.6L2532.82,863.613L3277.29,863.613L3277.29,1013.87L3170.29,1013.87L3170.29,1116.33L3215.82,1116.33L3215.82,1264.31L2576.08,1264.31L2576.08,1116.33L3004.09,1116.33L3004.09,1067.27L3004.82,1067.27L3004.82,1004.6L2532.82,1004.6Z"/>
    <rect id="Cell-Room-South-Passage" serif:id="Cell Room South Passage" x="1763.52" y="1116.88" width="810.938" height="147.433"/>
    <rect id="Cell-Room-Center-Passage" serif:id="Cell Room Center Passage" x="1763.44" y="863.613" width="604.951" height="142.066"/>
    <rect id="Cell-Room-Exit-Left" serif:id="Cell Room Exit Left" x="1607.23" y="790.472" width="152.538" height="473.778"/>
    <rect id="Cell-Room-Exit-Right" serif:id="Cell Room Exit Right" x="1607.23" y="432.045" width="152.538" height="355.846"/>
    <rect id="Basement-Stairway" serif:id="Basement Stairway" x="645.601" y="1363.69" width="204.671" height="218.042"/>
    <rect id="Storage" x="308.128" y="1469.13" width="170.751" height="412.079"/>
    <rect id="Bakery" x="480.741" y="1800.99" width="552.967" height="144.082"/>
    <rect id="Clothing-Room" serif:id="Clothing Room" x="851.61" y="1387.56" width="182.098" height="412.079"/>
    <rect id="Lavatory" x="1035.71" y="1387.56" width="465.463" height="557.51"/>
    <rect id="Pantry" x="635.932" y="769.2" width="232.831" height="172.54"/>
    <rect id="Kitchen-Storage" serif:id="Kitchen Storage" x="340.028" y="823.29" width="147.984" height="412.079"/>
    <rect id="Stockade-Stairway" serif:id="Stockade Stairway" x="860.387" y="1129.01" width="239.093" height="170.751"/>
    <rect id="Overseers-Mess" serif:id="Overseers Mess" x="870.781" y="769.311" width="228.358" height="172.54"/>
    <rect id="Mess-Room" serif:id="Mess Room" x="1101.38" y="769.311" width="382.402" height="507.7"/>
    <rect id="Hospital" x="842.91" y="232.001" width="244.291" height="158.486"/>
    <rect id="Attendants-Room" serif:id="Attendants Room" x="1089.2" y="232.001" width="394.576" height="158.486"/>
    <rect id="Dispel-Room" serif:id="Dispel Room" x="1097.87" y="558.997" width="181.62" height="173.506"/>
    <rect id="Screen-Room" serif:id="Screen Room" x="1281.25" y="558.997" width="202.532" height="173.506"/>
    <rect id="Lecher-Room" serif:id="Lecher Room" x="842.91" y="558.997" width="253.611" height="173.506"/>
    <rect id="Passage" x="842.542" y="392.28" width="640.167" height="165.269"/>
    <rect id="Upper-Lavatory" serif:id="Upper Lavatory" x="331.552" y="279.626" width="194.141" height="388.949"/>
    <rect id="Sick-Ward" serif:id="Sick Ward" x="528.141" y="232.001" width="312.361" height="499.631"/>
    <path id="Cell-Room-Northwest" serif:id="Cell Room Northwest" d="M2368.26,315.372L2368.26,439.828L2368.22,439.828L2368.22,682.9L1765.52,682.9L1765.52,431.071L2201.22,431.071L2201.22,315.372L2368.26,315.372Z"/>
    <rect id="Second-Floor-Hall" serif:id="Second Floor Hall" x="3199.65" y="1385.17" width="537.643" height="209.818"/>
    <rect id="Clerks" x="2956.24" y="1385.17" width="240.591" height="478.906"/>
    <rect id="Telegraph-Office" serif:id="Telegraph Office" x="3199.65" y="1597.36" width="253.811" height="266.716"/>
    <rect id="Record-Room" serif:id="Record Room" x="3455.41" y="1597.36" width="281.211" height="266.463"/>
    <ellipse cx="992.96" cy="941.851" rx="8" ry="8.012" style="fill:white;"/>
    <path d="M992.96,932.839C997.927,932.839 1001.96,936.877 1001.96,941.851C1001.96,946.825 997.927,950.863 992.96,950.863C987.993,950.863 983.96,946.825 983.96,941.851C983.96,936.877 987.993,932.839 992.96,932.839ZM992.96,934.839C989.096,934.839 985.96,937.981 985.96,941.851C985.96,945.721 989.096,948.863 992.96,948.863C996.824,948.863 999.96,945.721 999.96,941.851C999.96,937.981 996.824,934.839 992.96,934.839Z"/>
    <ellipse cx="752.348" cy="941.74" rx="8" ry="8.012" style="fill:white;"/>
    <path d="M752.348,932.728C757.314,932.728 761.348,936.766 761.348,941.74C761.348,946.714 757.314,950.752 752.348,950.752C747.381,950.752 743.348,946.714 743.348,941.74C743.348,936.766 747.381,932.728 752.348,932.728ZM752.348,934.728C748.484,934.728 745.348,937.87 745.348,941.74C745.348,945.61 748.484,948.752 752.348,948.752C756.211,948.752 759.348,945.61 759.348,941.74C759.348,937.87 756.211,934.728 752.348,934.728Z"/>
    <ellipse cx="488.403" cy="1029.89" rx="8" ry="8.012" style="fill:white;"/>
    <path d="M488.403,1020.88C493.369,1020.88 497.403,1024.92 497.403,1029.89C497.403,1034.87 493.369,1038.91 488.403,1038.91C483.436,1038.91 479.403,1034.87 479.403,1029.89C479.403,1024.92 483.436,1020.88 488.403,1020.88ZM488.403,1022.88C484.539,1022.88 481.403,1026.02 481.403,1029.89C481.403,1033.76 484.539,1036.91 488.403,1036.91C492.266,1036.91 495.403,1033.76 495.403,1029.89C495.403,1026.02 492.266,1022.88 488.403,1022.88Z"/>
    <ellipse cx="1099.14" cy="1028.31" rx="8" ry="8.012" style="fill:white;"/>
    <path d="M1099.14,1019.29C1104.11,1019.29 1108.14,1023.33 1108.14,1028.31C1108.14,1033.28 1104.11,1037.32 1099.14,1037.32C1094.17,1037.32 1090.14,1033.28 1090.14,1028.31C1090.14,1023.33 1094.17,1019.29 1099.14,1019.29ZM1099.14,1021.29C1095.28,1021.29 1092.14,1024.43 1092.14,1028.31C1092.14,1032.17 1095.28,1035.32 1099.14,1035.32C1103,1035.32 1106.14,1032.17 1106.14,1028.31C1106.14,1024.43 1103,1021.29 1099.14,1021.29Z"/>
    <ellipse cx="860.387" cy="1206.37" rx="8" ry="8.012" style="fill:white;"/>
    <path d="M860.387,1197.36C865.354,1197.36 869.387,1201.4 869.387,1206.37C869.387,1211.35 865.354,1215.38 860.387,1215.38C855.42,1215.38 851.387,1211.35 851.387,1206.37C851.387,1201.4 855.42,1197.36 860.387,1197.36ZM860.387,1199.36C856.523,1199.36 853.387,1202.5 853.387,1206.37C853.387,1210.24 856.523,1213.38 860.387,1213.38C864.251,1213.38 867.387,1210.24 867.387,1206.37C867.387,1202.5 864.251,1199.36 860.387,1199.36Z"/>
    <ellipse cx="1035.71" cy="1593.6" rx="8" ry="8.012" style="fill:white;"/>
    <path d="M1035.71,1584.59C1040.68,1584.59 1044.71,1588.62 1044.71,1593.6C1044.71,1598.57 1040.68,1602.61 1035.71,1602.61C1030.74,1602.61 1026.71,1598.57 1026.71,1593.6C1026.71,1588.62 1030.74,1584.59 1035.71,1584.59ZM1035.71,1586.59C1031.85,1586.59 1028.71,1589.73 1028.71,1593.6C1028.71,1597.47 1031.85,1600.61 1035.71,1600.61C1039.57,1600.61 1042.71,1597.47 1042.71,1593.6C1042.71,1589.73 1039.57,1586.59 1035.71,1586.59Z"/>
    <ellipse cx="945.286" cy="1800.99" rx="8" ry="8.012" style="fill:white;"/>
    <path d="M945.286,1791.98C950.253,1791.98 954.286,1796.02 954.286,1800.99C954.286,1805.96 950.253,1810 945.286,1810C940.32,1810 936.286,1805.96 936.286,1800.99C936.286,1796.02 940.32,1791.98 945.286,1791.98ZM945.286,1793.98C941.423,1793.98 938.286,1797.12 938.286,1800.99C938.286,1804.86 941.423,1808 945.286,1808C949.15,1808 952.286,1804.86 952.286,1800.99C952.286,1797.12 949.15,1793.98 945.286,1793.98Z"/>
    <ellipse cx="645.601" cy="1475.87" rx="8" ry="8.012" style="fill:white;"/>
    <path d="M645.601,1466.86C650.568,1466.86 654.601,1470.9 654.601,1475.87C654.601,1480.85 650.568,1484.88 645.601,1484.88C640.634,1484.88 636.601,1480.85 636.601,1475.87C636.601,1470.9 640.634,1466.86 645.601,1466.86ZM645.601,1468.86C641.737,1468.86 638.601,1472 638.601,1475.87C638.601,1479.74 641.737,1482.88 645.601,1482.88C649.465,1482.88 652.601,1479.74 652.601,1475.87C652.601,1472 649.465,1468.86 645.601,1468.86Z"/>
    <ellipse cx="478.879" cy="1621.04" rx="8" ry="8.012" style="fill:white;"/>
    <path d="M478.879,1612.03C483.846,1612.03 487.879,1616.06 487.879,1621.04C487.879,1626.01 483.846,1630.05 478.879,1630.05C473.912,1630.05 469.879,1626.01 469.879,1621.04C469.879,1616.06 473.912,1612.03 478.879,1612.03ZM478.879,1614.03C475.015,1614.03 471.879,1617.17 471.879,1621.04C471.879,1624.91 475.015,1628.05 478.879,1628.05C482.743,1628.05 485.879,1624.91 485.879,1621.04C485.879,1617.17 482.743,1614.03 478.879,1614.03Z"/>
    <ellipse cx="673.676" cy="1800.99" rx="8" ry="8.012" style="fill:white;"/>
    <path d="M673.676,1791.98C678.642,1791.98 682.676,1796.02 682.676,1800.99C682.676,1805.96 678.642,1810 673.676,1810C668.709,1810 664.676,1805.96 664.676,1800.99C664.676,1796.02 668.709,1791.98 673.676,1791.98ZM673.676,1793.98C669.812,1793.98 666.676,1797.12 666.676,1800.99C666.676,1804.86 669.812,1808 673.676,1808C677.539,1808 680.676,1804.86 680.676,1800.99C680.676,1797.12 677.539,1793.98 673.676,1793.98Z"/>
    <ellipse cx="1385.35" cy="557.549" rx="8" ry="8.012" style="fill:white;"/>
    <path d="M1385.35,548.537C1390.32,548.537 1394.35,552.575 1394.35,557.549C1394.35,562.523 1390.32,566.561 1385.35,566.561C1380.38,566.561 1376.35,562.523 1376.35,557.549C1376.35,552.575 1380.38,548.537 1385.35,548.537ZM1385.35,550.537C1381.49,550.537 1378.35,553.679 1378.35,557.549C1378.35,561.419 1381.49,564.561 1385.35,564.561C1389.21,564.561 1392.35,561.419 1392.35,557.549C1392.35,553.679 1389.21,550.537 1385.35,550.537Z"/>
    <ellipse cx="1683.5" cy="789.194" rx="8" ry="8.012" style="fill:white;"/>
    <path d="M1683.5,780.182C1688.47,780.182 1692.5,784.22 1692.5,789.194C1692.5,794.169 1688.47,798.206 1683.5,798.206C1678.53,798.206 1674.5,794.169 1674.5,789.194C1674.5,784.22 1678.53,780.182 1683.5,780.182ZM1683.5,782.182C1679.63,782.182 1676.5,785.324 1676.5,789.194C1676.5,793.064 1679.63,796.206 1683.5,796.206C1687.36,796.206 1690.5,793.064 1690.5,789.194C1690.5,785.324 1687.36,782.182 1683.5,782.182Z"/>
    <ellipse cx="1759.77" cy="933.42" rx="8" ry="8.012" style="fill:white;"/>
    <path d="M1759.77,924.408C1764.74,924.408 1768.77,928.446 1768.77,933.42C1768.77,938.395 1764.74,942.433 1759.77,942.433C1754.8,942.433 1750.77,938.395 1750.77,933.42C1750.77,928.446 1754.8,924.408 1759.77,924.408ZM1759.77,926.408C1755.9,926.408 1752.77,929.55 1752.77,933.42C1752.77,937.29 1755.9,940.433 1759.77,940.433C1763.63,940.433 1766.77,937.29 1766.77,933.42C1766.77,929.55 1763.63,926.408 1759.77,926.408Z"/>
    <ellipse cx="1759.77" cy="554.589" rx="8" ry="8.012" style="fill:white;"/>
    <path d="M1759.77,545.576C1764.74,545.576 1768.77,549.614 1768.77,554.589C1768.77,559.563 1764.74,563.601 1759.77,563.601C1754.8,563.601 1750.77,559.563 1750.77,554.589C1750.77,549.614 1754.8,545.576 1759.77,545.576ZM1759.77,547.576C1755.9,547.576 1752.77,550.719 1752.77,554.589C1752.77,558.458 1755.9,561.601 1759.77,561.601C1763.63,561.601 1766.77,558.458 1766.77,554.589C1766.77,550.719 1763.63,547.576 1759.77,547.576Z"/>
    <ellipse cx="2371.35" cy="554.589" rx="8" ry="8.012" style="fill:white;"/>
    <path d="M2371.35,545.576C2376.32,545.576 2380.35,549.614 2380.35,554.589C2380.35,559.563 2376.32,563.601 2371.35,563.601C2366.38,563.601 2362.35,559.563 2362.35,554.589C2362.35,549.614 2366.38,545.576 2371.35,545.576ZM2371.35,547.576C2367.49,547.576 2364.35,550.719 2364.35,554.589C2364.35,558.458 2367.49,561.601 2371.35,561.601C2375.21,561.601 2378.35,558.458 2378.35,554.589C2378.35,550.719 2375.21,547.576 2371.35,547.576Z"/>
    <ellipse cx="2426.24" cy="435.853" rx="8" ry="8.012" style="fill:white;"/>
    <path d="M2426.24,426.841C2431.21,426.841 2435.24,430.879 2435.24,435.853C2435.24,440.828 2431.21,444.866 2426.24,444.866C2421.28,444.866 2417.24,440.828 2417.24,435.853C2417.24,430.879 2421.28,426.841 2426.24,426.841ZM2426.24,428.841C2422.38,428.841 2419.24,431.983 2419.24,435.853C2419.24,439.723 2422.38,442.866 2426.24,442.866C2430.11,442.866 2433.24,439.723 2433.24,435.853C2433.24,431.983 2430.11,428.841 2426.24,428.841Z"/>
    <ellipse cx="2371.35" cy="373.512" rx="8" ry="8.012" style="fill:white;"/>
    <path d="M2371.35,364.499C2376.32,364.499 2380.35,368.537 2380.35,373.512C2380.35,378.486 2376.32,382.524 2371.35,382.524C2366.38,382.524 2362.35,378.486 2362.35,373.512C2362.35,368.537 2366.38,364.499 2371.35,364.499ZM2371.35,366.499C2367.49,366.499 2364.35,369.642 2364.35,373.512C2364.35,377.382 2367.49,380.524 2371.35,380.524C2375.21,380.524 2378.35,377.382 2378.35,373.512C2378.35,369.642 2375.21,366.499 2371.35,366.499Z"/>
    <ellipse cx="1759.77" cy="1193.92" rx="8" ry="8.012" style="fill:white;"/>
    <path d="M1759.77,1184.9C1764.74,1184.9 1768.77,1188.94 1768.77,1193.92C1768.77,1198.89 1764.74,1202.93 1759.77,1202.93C1754.8,1202.93 1750.77,1198.89 1750.77,1193.92C1750.77,1188.94 1754.8,1184.9 1759.77,1184.9ZM1759.77,1186.9C1755.9,1186.9 1752.77,1190.05 1752.77,1193.92C1752.77,1197.79 1755.9,1200.93 1759.77,1200.93C1763.63,1200.93 1766.77,1197.79 1766.77,1193.92C1766.77,1190.05 1763.63,1186.9 1759.77,1186.9Z"/>
    <ellipse cx="2574.46" cy="1193.92" rx="8" ry="8.012" style="fill:white;"/>
    <path d="M2574.46,1184.9C2579.43,1184.9 2583.46,1188.94 2583.46,1193.92C2583.46,1198.89 2579.43,1202.93 2574.46,1202.93C2569.49,1202.93 2565.46,1198.89 2565.46,1193.92C2565.46,1188.94 2569.49,1184.9 2574.46,1184.9ZM2574.46,1186.9C2570.59,1186.9 2567.46,1190.05 2567.46,1193.92C2567.46,1197.79 2570.59,1200.93 2574.46,1200.93C2578.32,1200.93 2581.46,1197.79 2581.46,1193.92C2581.46,1190.05 2578.32,1186.9 2574.46,1186.9Z"/>
    <ellipse cx="3173.28" cy="863.613" rx="8" ry="8.012" style="fill:white;"/>
    <path d="M3173.28,854.601C3178.25,854.601 3182.28,858.639 3182.28,863.613C3182.28,868.587 3178.25,872.625 3173.28,872.625C3168.32,872.625 3164.28,868.587 3164.28,863.613C3164.28,858.639 3168.32,854.601 3173.28,854.601ZM3173.28,856.601C3169.42,856.601 3166.28,859.743 3166.28,863.613C3166.28,867.483 3169.42,870.625 3173.28,870.625C3177.15,870.625 3180.28,867.483 3180.28,863.613C3180.28,859.743 3177.15,856.601 3173.28,856.601Z"/>
    <ellipse cx="3173.28" cy="612.247" rx="8" ry="8.012" style="fill:white;"/>
    <path d="M3173.28,603.235C3178.25,603.235 3182.28,607.273 3182.28,612.247C3182.28,617.221 3178.25,621.259 3173.28,621.259C3168.32,621.259 3164.28,617.221 3164.28,612.247C3164.28,607.273 3168.32,603.235 3173.28,603.235ZM3173.28,605.235C3169.42,605.235 3166.28,608.377 3166.28,612.247C3166.28,616.117 3169.42,619.259 3173.28,619.259C3177.15,619.259 3180.28,616.117 3180.28,612.247C3180.28,608.377 3177.15,605.235 3173.28,605.235Z"/>
    <ellipse cx="2532.82" cy="933.42" rx="8" ry="8.012" style="fill:white;"/>
    <path d="M2532.82,924.408C2537.79,924.408 2541.82,928.446 2541.82,933.42C2541.82,938.395 2537.79,942.433 2532.82,942.433C2527.85,942.433 2523.82,938.395 2523.82,933.42C2523.82,928.446 2527.85,924.408 2532.82,924.408ZM2532.82,926.408C2528.96,926.408 2525.82,929.55 2525.82,933.42C2525.82,937.29 2528.96,940.433 2532.82,940.433C2536.68,940.433 2539.82,937.29 2539.82,933.42C2539.82,929.55 2536.68,926.408 2532.82,926.408Z"/>
    <ellipse cx="2532.82" cy="667.364" rx="8" ry="8.012" style="fill:white;"/>
    <path d="M2532.82,658.352C2537.79,658.352 2541.82,662.39 2541.82,667.364C2541.82,672.339 2537.79,676.377 2532.82,676.377C2527.85,676.377 2523.82,672.339 2523.82,667.364C2523.82,662.39 2527.85,658.352 2532.82,658.352ZM2532.82,660.352C2528.96,660.352 2525.82,663.495 2525.82,667.364C2525.82,671.234 2528.96,674.377 2532.82,674.377C2536.68,674.377 2539.82,671.234 2539.82,667.364C2539.82,663.495 2536.68,660.352 2532.82,660.352Z"/>
    <ellipse cx="3277.66" cy="721.548" rx="8" ry="8.012" style="fill:white;"/>
    <path d="M3277.66,712.536C3282.63,712.536 3286.66,716.574 3286.66,721.549C3286.66,726.523 3282.63,730.561 3277.66,730.561C3272.69,730.561 3268.66,726.523 3268.66,721.549C3268.66,716.574 3272.69,712.536 3277.66,712.536ZM3277.66,714.536C3273.8,714.536 3270.66,717.679 3270.66,721.549C3270.66,725.418 3273.8,728.561 3277.66,728.561C3281.52,728.561 3284.66,725.418 3284.66,721.549C3284.66,717.679 3281.52,714.536 3277.66,714.536Z"/>
    <ellipse cx="3364.23" cy="816.894" rx="8" ry="8.012" style="fill:white;"/>
    <path d="M3364.23,807.882C3369.19,807.882 3373.23,811.92 3373.23,816.894C3373.23,821.868 3369.19,825.906 3364.23,825.906C3359.26,825.906 3355.23,821.868 3355.23,816.894C3355.23,811.92 3359.26,807.882 3364.23,807.882ZM3364.23,809.882C3360.36,809.882 3357.23,813.024 3357.23,816.894C3357.23,820.764 3360.36,823.906 3364.23,823.906C3368.09,823.906 3371.23,820.764 3371.23,816.894C3371.23,813.024 3368.09,809.882 3364.23,809.882Z"/>
    <ellipse cx="3462.15" cy="764.477" rx="8" ry="8.012" style="fill:white;"/>
    <path d="M3462.15,755.465C3467.12,755.465 3471.15,759.503 3471.15,764.477C3471.15,769.451 3467.12,773.489 3462.15,773.489C3457.18,773.489 3453.15,769.451 3453.15,764.477C3453.15,759.503 3457.18,755.465 3462.15,755.465ZM3462.15,757.465C3458.29,757.465 3455.15,760.607 3455.15,764.477C3455.15,768.347 3458.29,771.489 3462.15,771.489C3466.01,771.489 3469.15,768.347 3469.15,764.477C3469.15,760.607 3466.01,757.465 3462.15,757.465Z"/>
    <ellipse cx="3557.91" cy="866.712" rx="8" ry="8.012" style="fill:white;"/>
    <path d="M3557.91,857.7C3562.87,857.7 3566.91,861.738 3566.91,866.712C3566.91,871.686 3562.87,875.724 3557.91,875.724C3552.94,875.724 3548.91,871.686 3548.91,866.712C3548.91,861.738 3552.94,857.7 3557.91,857.7ZM3557.91,859.7C3554.04,859.7 3550.91,862.842 3550.91,866.712C3550.91,870.582 3554.04,873.724 3557.91,873.724C3561.77,873.724 3564.91,870.582 3564.91,866.712C3564.91,862.842 3561.77,859.7 3557.91,859.7Z"/>
    <ellipse cx="3323.71" cy="1597.36" rx="8" ry="8.012" style="fill:white;"/>
    <path d="M3323.71,1588.35C3328.68,1588.35 3332.71,1592.39 3332.71,1597.36C3332.71,1602.33 3328.68,1606.37 3323.71,1606.37C3318.75,1606.37 3314.71,1602.33 3314.71,1597.36C3314.71,1592.39 3318.75,1588.35 3323.71,1588.35ZM3323.71,1590.35C3319.85,1590.35 3316.71,1593.49 3316.71,1597.36C3316.71,1601.23 3319.85,1604.37 3323.71,1604.37C3327.58,1604.37 3330.71,1601.23 3330.71,1597.36C3330.71,1593.49 3327.58,1590.35 3323.71,1590.35Z"/>
    <ellipse cx="3603.27" cy="1597.36" rx="8" ry="8.012" style="fill:white;"/>
    <path d="M3603.27,1588.35C3608.24,1588.35 3612.27,1592.39 3612.27,1597.36C3612.27,1602.33 3608.24,1606.37 3603.27,1606.37C3598.3,1606.37 3594.27,1602.33 3594.27,1597.36C3594.27,1592.39 3598.3,1588.35 3603.27,1588.35ZM3603.27,1590.35C3599.41,1590.35 3596.27,1593.49 3596.27,1597.36C3596.27,1601.23 3599.41,1604.37 3603.27,1604.37C3607.13,1604.37 3610.27,1601.23 3610.27,1597.36C3610.27,1593.49 3607.13,1590.35 3603.27,1590.35Z"/>
    <ellipse cx="3199.65" cy="1494.43" rx="8" ry="8.012" style="fill:white;"/>
    <path d="M3199.65,1485.42C3204.62,1485.42 3208.65,1489.46 3208.65,1494.43C3208.65,1499.41 3204.62,1503.44 3199.65,1503.44C3194.68,1503.44 3190.65,1499.41 3190.65,1494.43C3190.65,1489.46 3194.68,1485.42 3199.65,1485.42ZM3199.65,1487.42C3195.79,1487.42 3192.65,1490.56 3192.65,1494.43C3192.65,1498.3 3195.79,1501.44 3199.65,1501.44C3203.51,1501.44 3206.65,1498.3 3206.65,1494.43C3206.65,1490.56 3203.51,1487.42 3199.65,1487.42Z"/>
    <ellipse cx="3364.23" cy="558.042" rx="8" ry="8.012" style="fill:white;"/>
    <path d="M3364.23,549.03C3369.19,549.03 3373.23,553.068 3373.23,558.042C3373.23,563.016 3369.19,567.054 3364.23,567.054C3359.26,567.054 3355.23,563.016 3355.23,558.042C3355.23,553.068 3359.26,549.03 3364.23,549.03ZM3364.23,551.03C3360.36,551.03 3357.23,554.172 3357.23,558.042C3357.23,561.912 3360.36,565.054 3364.23,565.054C3368.09,565.054 3371.23,561.912 3371.23,558.042C3371.23,554.172 3368.09,551.03 3364.23,551.03Z"/>
    <ellipse cx="3552.45" cy="558.042" rx="8" ry="8.012" style="fill:white;"/>
    <path d="M3552.45,549.03C3557.42,549.03 3561.45,553.068 3561.45,558.042C3561.45,563.016 3557.42,567.054 3552.45,567.054C3547.49,567.054 3543.45,563.016 3543.45,558.042C3543.45,553.068 3547.49,549.03 3552.45,549.03ZM3552.45,551.03C3548.59,551.03 3545.45,554.172 3545.45,558.042C3545.45,561.912 3548.59,565.054 3552.45,565.054C3556.32,565.054 3559.45,561.912 3559.45,558.042C3559.45,554.172 3556.32,551.03 3552.45,551.03Z"/>
    <ellipse cx="2371.35" cy="933.42" rx="8" ry="8.012" style="fill:white;"/>
    <path d="M2371.35,924.408C2376.32,924.408 2380.35,928.446 2380.35,933.42C2380.35,938.395 2376.32,942.433 2371.35,942.433C2366.38,942.433 2362.35,938.395 2362.35,933.42C2362.35,928.446 2366.38,924.408 2371.35,924.408ZM2371.35,926.408C2367.49,926.408 2364.35,929.55 2364.35,933.42C2364.35,937.29 2367.49,940.433 2371.35,940.433C2375.21,940.433 2378.35,937.29 2378.35,933.42C2378.35,929.55 2375.21,926.408 2371.35,926.408Z"/>
    <ellipse cx="1190.82" cy="557.549" rx="8" ry="8.012" style="fill:white;"/>
    <path d="M1190.82,548.537C1195.79,548.537 1199.82,552.575 1199.82,557.549C1199.82,562.523 1195.79,566.561 1190.82,566.561C1185.85,566.561 1181.82,562.523 1181.82,557.549C1181.82,552.575 1185.85,548.537 1190.82,548.537ZM1190.82,550.537C1186.96,550.537 1183.82,553.679 1183.82,557.549C1183.82,561.419 1186.96,564.561 1190.82,564.561C1194.68,564.561 1197.82,561.419 1197.82,557.549C1197.82,553.679 1194.68,550.537 1190.82,550.537Z"/>
    <ellipse cx="969.716" cy="557.549" rx="8" ry="8.012" style="fill:white;"/>
    <path d="M969.716,548.537C974.682,548.537 978.716,552.575 978.716,557.549C978.716,562.523 974.682,566.561 969.716,566.561C964.749,566.561 960.716,562.523 960.716,557.549C960.716,552.575 964.749,548.537 969.716,548.537ZM969.716,550.537C965.852,550.537 962.716,553.679 962.716,557.549C962.716,561.419 965.852,564.561 969.716,564.561C973.579,564.561 976.716,561.419 976.716,557.549C976.716,553.679 973.579,550.537 969.716,550.537Z"/>
    <ellipse cx="969.716" cy="390.487" rx="8" ry="8.012" style="fill:white;"/>
    <path d="M969.716,381.475C974.682,381.475 978.716,385.513 978.716,390.487C978.716,395.461 974.682,399.499 969.716,399.499C964.749,399.499 960.716,395.461 960.716,390.487C960.716,385.513 964.749,381.475 969.716,381.475ZM969.716,383.475C965.852,383.475 962.716,386.617 962.716,390.487C962.716,394.357 965.852,397.499 969.716,397.499C973.579,397.499 976.716,394.357 976.716,390.487C976.716,386.617 973.579,383.475 969.716,383.475Z"/>
    <ellipse cx="1292.74" cy="390.487" rx="8" ry="8.012" style="fill:white;"/>
    <path d="M1292.74,381.475C1297.71,381.475 1301.74,385.513 1301.74,390.487C1301.74,395.461 1297.71,399.499 1292.74,399.499C1287.78,399.499 1283.74,395.461 1283.74,390.487C1283.74,385.513 1287.78,381.475 1292.74,381.475ZM1292.74,383.475C1288.88,383.475 1285.74,386.617 1285.74,390.487C1285.74,394.357 1288.88,397.499 1292.74,397.499C1296.61,397.499 1299.74,394.357 1299.74,390.487C1299.74,386.617 1296.61,383.475 1292.74,383.475Z"/>
    <ellipse cx="842.91" cy="474.914" rx="8" ry="8.012" style="fill:white;"/>
    <path d="M842.91,465.902C847.877,465.902 851.91,469.94 851.91,474.915C851.91,479.889 847.877,483.927 842.91,483.927C837.943,483.927 833.91,479.889 833.91,474.915C833.91,469.94 837.943,465.902 842.91,465.902ZM842.91,467.902C839.046,467.902 835.91,471.045 835.91,474.915C835.91,478.784 839.046,481.927 842.91,481.927C846.774,481.927 849.91,478.784 849.91,474.915C849.91,471.045 846.774,467.902 842.91,467.902Z"/>
    <ellipse cx="525.693" cy="473.804" rx="8" ry="8.012" style="fill:white;"/>
    <path d="M525.693,464.792C530.66,464.792 534.693,468.83 534.693,473.804C534.693,478.779 530.66,482.817 525.693,482.817C520.726,482.817 516.693,478.779 516.693,473.804C516.693,468.83 520.726,464.792 525.693,464.792ZM525.693,466.792C521.829,466.792 518.693,469.934 518.693,473.804C518.693,477.674 521.829,480.817 525.693,480.817C529.557,480.817 532.693,477.674 532.693,473.804C532.693,469.934 529.557,466.792 525.693,466.792Z"/>
    <path d="M3565.66,1040.03C3565.66,1038.71 3564.59,1037.64 3563.27,1037.64C3561.95,1037.64 3560.88,1038.71 3560.88,1040.03C3560.88,1041.35 3561.95,1042.42 3563.27,1042.42C3564.59,1042.42 3565.66,1041.35 3565.66,1040.03Z" style="fill:none;stroke:rgb(251,251,251);stroke-opacity:0.41;stroke-width:4.78px;"/>
    <path d="M3565.66,1381.99C3565.66,1383.31 3564.59,1384.38 3563.27,1384.38C3561.95,1384.38 3560.88,1383.31 3560.88,1381.99C3560.88,1380.67 3561.95,1379.6 3563.27,1379.6C3564.59,1379.6 3565.66,1380.67 3565.66,1381.99Z" style="fill:none;stroke:rgb(251,251,251);stroke-opacity:0.41;stroke-width:4.78px;"/>
    <path d="M3560.88,1042.42C3560.88,1041.11 3561.95,1040.03 3563.27,1040.03C3564.59,1040.03 3565.66,1041.11 3565.66,1042.42L3565.66,1044.83C3565.66,1046.15 3564.59,1047.22 3563.27,1047.22C3561.95,1047.22 3560.88,1046.15 3560.88,1044.83L3560.88,1042.42ZM3560.88,1049.65C3560.88,1048.33 3561.95,1047.26 3563.27,1047.26C3564.59,1047.26 3565.66,1048.33 3565.66,1049.65L3565.66,1054.47C3565.66,1055.79 3564.59,1056.86 3563.27,1056.86C3561.95,1056.86 3560.88,1055.79 3560.88,1054.47L3560.88,1049.65ZM3560.88,1059.28C3560.88,1057.96 3561.95,1056.89 3563.27,1056.89C3564.59,1056.89 3565.66,1057.96 3565.66,1059.28L3565.66,1064.1C3565.66,1065.42 3564.59,1066.49 3563.27,1066.49C3561.95,1066.49 3560.88,1065.42 3560.88,1064.1L3560.88,1059.28ZM3560.88,1068.92C3560.88,1067.6 3561.95,1066.53 3563.27,1066.53C3564.59,1066.53 3565.66,1067.6 3565.66,1068.92L3565.66,1073.73C3565.66,1075.05 3564.59,1076.12 3563.27,1076.12C3561.95,1076.12 3560.88,1075.05 3560.88,1073.73L3560.88,1068.92ZM3560.88,1078.55C3560.88,1077.23 3561.95,1076.16 3563.27,1076.16C3564.59,1076.16 3565.66,1077.23 3565.66,1078.55L3565.66,1083.37C3565.66,1084.69 3564.59,1085.76 3563.27,1085.76C3561.95,1085.76 3560.88,1084.69 3560.88,1083.37L3560.88,1078.55ZM3560.88,1088.18C3560.88,1086.86 3561.95,1085.79 3563.27,1085.79C3564.59,1085.79 3565.66,1086.86 3565.66,1088.18L3565.66,1093C3565.66,1094.32 3564.59,1095.39 3563.27,1095.39C3561.95,1095.39 3560.88,1094.32 3560.88,1093L3560.88,1088.18ZM3560.88,1097.82C3560.88,1096.5 3561.95,1095.42 3563.27,1095.42C3564.59,1095.42 3565.66,1096.5 3565.66,1097.82L3565.66,1102.63C3565.66,1103.95 3564.59,1105.03 3563.27,1105.03C3561.95,1105.03 3560.88,1103.95 3560.88,1102.63L3560.88,1097.82ZM3560.88,1107.45C3560.88,1106.13 3561.95,1105.06 3563.27,1105.06C3564.59,1105.06 3565.66,1106.13 3565.66,1107.45L3565.66,1112.27C3565.66,1113.59 3564.59,1114.66 3563.27,1114.66C3561.95,1114.66 3560.88,1113.59 3560.88,1112.27L3560.88,1107.45ZM3560.88,1117.08C3560.88,1115.76 3561.95,1114.69 3563.27,1114.69C3564.59,1114.69 3565.66,1115.76 3565.66,1117.08L3565.66,1121.9C3565.66,1123.22 3564.59,1124.29 3563.27,1124.29C3561.95,1124.29 3560.88,1123.22 3560.88,1121.9L3560.88,1117.08ZM3560.88,1126.72C3560.88,1125.4 3561.95,1124.33 3563.27,1124.33C3564.59,1124.33 3565.66,1125.4 3565.66,1126.72L3565.66,1131.53C3565.66,1132.85 3564.59,1133.92 3563.27,1133.92C3561.95,1133.92 3560.88,1132.85 3560.88,1131.53L3560.88,1126.72ZM3560.88,1136.35C3560.88,1135.03 3561.95,1133.96 3563.27,1133.96C3564.59,1133.96 3565.66,1135.03 3565.66,1136.35L3565.66,1141.17C3565.66,1142.49 3564.59,1143.56 3563.27,1143.56C3561.95,1143.56 3560.88,1142.49 3560.88,1141.17L3560.88,1136.35ZM3560.88,1145.98C3560.88,1144.66 3561.95,1143.59 3563.27,1143.59C3564.59,1143.59 3565.66,1144.66 3565.66,1145.98L3565.66,1150.8C3565.66,1152.12 3564.59,1153.19 3563.27,1153.19C3561.95,1153.19 3560.88,1152.12 3560.88,1150.8L3560.88,1145.98ZM3560.88,1155.62C3560.88,1154.3 3561.95,1153.23 3563.27,1153.23C3564.59,1153.23 3565.66,1154.3 3565.66,1155.62L3565.66,1160.43C3565.66,1161.75 3564.59,1162.83 3563.27,1162.83C3561.95,1162.83 3560.88,1161.75 3560.88,1160.43L3560.88,1155.62ZM3560.88,1165.25C3560.88,1163.93 3561.95,1162.86 3563.27,1162.86C3564.59,1162.86 3565.66,1163.93 3565.66,1165.25L3565.66,1170.07C3565.66,1171.39 3564.59,1172.46 3563.27,1172.46C3561.95,1172.46 3560.88,1171.39 3560.88,1170.07L3560.88,1165.25ZM3560.88,1174.88C3560.88,1173.57 3561.95,1172.49 3563.27,1172.49C3564.59,1172.49 3565.66,1173.57 3565.66,1174.88L3565.66,1179.7C3565.66,1181.02 3564.59,1182.09 3563.27,1182.09C3561.95,1182.09 3560.88,1181.02 3560.88,1179.7L3560.88,1174.88ZM3560.88,1184.52C3560.88,1183.2 3561.95,1182.13 3563.27,1182.13C3564.59,1182.13 3565.66,1183.2 3565.66,1184.52L3565.66,1189.34C3565.66,1190.65 3564.59,1191.73 3563.27,1191.73C3561.95,1191.73 3560.88,1190.65 3560.88,1189.34L3560.88,1184.52ZM3560.88,1194.15C3560.88,1192.83 3561.95,1191.76 3563.27,1191.76C3564.59,1191.76 3565.66,1192.83 3565.66,1194.15L3565.66,1198.97C3565.66,1200.29 3564.59,1201.36 3563.27,1201.36C3561.95,1201.36 3560.88,1200.29 3560.88,1198.97L3560.88,1194.15ZM3560.88,1203.78C3560.88,1202.46 3561.95,1201.39 3563.27,1201.39C3564.59,1201.39 3565.66,1202.46 3565.66,1203.78L3565.66,1208.6C3565.66,1209.92 3564.59,1210.99 3563.27,1210.99C3561.95,1210.99 3560.88,1209.92 3560.88,1208.6L3560.88,1203.78ZM3560.88,1213.42C3560.88,1212.1 3561.95,1211.03 3563.27,1211.03C3564.59,1211.03 3565.66,1212.1 3565.66,1213.42L3565.66,1218.24C3565.66,1219.56 3564.59,1220.63 3563.27,1220.63C3561.95,1220.63 3560.88,1219.56 3560.88,1218.24L3560.88,1213.42ZM3560.88,1223.05C3560.88,1221.73 3561.95,1220.66 3563.27,1220.66C3564.59,1220.66 3565.66,1221.73 3565.66,1223.05L3565.66,1227.87C3565.66,1229.19 3564.59,1230.26 3563.27,1230.26C3561.95,1230.26 3560.88,1229.19 3560.88,1227.87L3560.88,1223.05ZM3560.88,1232.68C3560.88,1231.37 3561.95,1230.29 3563.27,1230.29C3564.59,1230.29 3565.66,1231.37 3565.66,1232.68L3565.66,1237.5C3565.66,1238.82 3564.59,1239.89 3563.27,1239.89C3561.95,1239.89 3560.88,1238.82 3560.88,1237.5L3560.88,1232.68ZM3560.88,1242.32C3560.88,1241 3561.95,1239.93 3563.27,1239.93C3564.59,1239.93 3565.66,1241 3565.66,1242.32L3565.66,1247.14C3565.66,1248.45 3564.59,1249.53 3563.27,1249.53C3561.95,1249.53 3560.88,1248.45 3560.88,1247.14L3560.88,1242.32ZM3560.88,1251.95C3560.88,1250.63 3561.95,1249.56 3563.27,1249.56C3564.59,1249.56 3565.66,1250.63 3565.66,1251.95L3565.66,1256.77C3565.66,1258.09 3564.59,1259.16 3563.27,1259.16C3561.95,1259.16 3560.88,1258.09 3560.88,1256.77L3560.88,1251.95ZM3560.88,1261.59C3560.88,1260.27 3561.95,1259.19 3563.27,1259.19C3564.59,1259.19 3565.66,1260.27 3565.66,1261.59L3565.66,1266.4C3565.66,1267.72 3564.59,1268.79 3563.27,1268.79C3561.95,1268.79 3560.88,1267.72 3560.88,1266.4L3560.88,1261.59ZM3560.88,1271.22C3560.88,1269.9 3561.95,1268.83 3563.27,1268.83C3564.59,1268.83 3565.66,1269.9 3565.66,1271.22L3565.66,1276.04C3565.66,1277.36 3564.59,1278.43 3563.27,1278.43C3561.95,1278.43 3560.88,1277.36 3560.88,1276.04L3560.88,1271.22ZM3560.88,1280.85C3560.88,1279.53 3561.95,1278.46 3563.27,1278.46C3564.59,1278.46 3565.66,1279.53 3565.66,1280.85L3565.66,1285.67C3565.66,1286.99 3564.59,1288.06 3563.27,1288.06C3561.95,1288.06 3560.88,1286.99 3560.88,1285.67L3560.88,1280.85ZM3560.88,1290.49C3560.88,1289.17 3561.95,1288.09 3563.27,1288.09C3564.59,1288.09 3565.66,1289.17 3565.66,1290.49L3565.66,1295.3C3565.66,1296.62 3564.59,1297.69 3563.27,1297.69C3561.95,1297.69 3560.88,1296.62 3560.88,1295.3L3560.88,1290.49ZM3560.88,1300.12C3560.88,1298.8 3561.95,1297.73 3563.27,1297.73C3564.59,1297.73 3565.66,1298.8 3565.66,1300.12L3565.66,1304.94C3565.66,1306.26 3564.59,1307.33 3563.27,1307.33C3561.95,1307.33 3560.88,1306.26 3560.88,1304.94L3560.88,1300.12ZM3560.88,1309.75C3560.88,1308.43 3561.95,1307.36 3563.27,1307.36C3564.59,1307.36 3565.66,1308.43 3565.66,1309.75L3565.66,1314.57C3565.66,1315.89 3564.59,1316.96 3563.27,1316.96C3561.95,1316.96 3560.88,1315.89 3560.88,1314.57L3560.88,1309.75ZM3560.88,1319.39C3560.88,1318.07 3561.95,1316.99 3563.27,1316.99C3564.59,1316.99 3565.66,1318.07 3565.66,1319.39L3565.66,1324.2C3565.66,1325.52 3564.59,1326.59 3563.27,1326.59C3561.95,1326.59 3560.88,1325.52 3560.88,1324.2L3560.88,1319.39ZM3560.88,1329.02C3560.88,1327.7 3561.95,1326.63 3563.27,1326.63C3564.59,1326.63 3565.66,1327.7 3565.66,1329.02L3565.66,1333.84C3565.66,1335.16 3564.59,1336.23 3563.27,1336.23C3561.95,1336.23 3560.88,1335.16 3560.88,1333.84L3560.88,1329.02ZM3560.88,1338.65C3560.88,1337.33 3561.95,1336.26 3563.27,1336.26C3564.59,1336.26 3565.66,1337.33 3565.66,1338.65L3565.66,1343.47C3565.66,1344.79 3564.59,1345.86 3563.27,1345.86C3561.95,1345.86 3560.88,1344.79 3560.88,1343.47L3560.88,1338.65ZM3560.88,1348.29C3560.88,1346.97 3561.95,1345.89 3563.27,1345.89C3564.59,1345.89 3565.66,1346.97 3565.66,1348.29L3565.66,1353.1C3565.66,1354.42 3564.59,1355.5 3563.27,1355.5C3561.95,1355.5 3560.88,1354.42 3560.88,1353.1L3560.88,1348.29ZM3560.88,1357.92C3560.88,1356.6 3561.95,1355.53 3563.27,1355.53C3564.59,1355.53 3565.66,1356.6 3565.66,1357.92L3565.66,1362.74C3565.66,1364.06 3564.59,1365.13 3563.27,1365.13C3561.95,1365.13 3560.88,1364.06 3560.88,1362.74L3560.88,1357.92ZM3560.88,1367.55C3560.88,1366.23 3561.95,1365.16 3563.27,1365.16C3564.59,1365.16 3565.66,1366.23 3565.66,1367.55L3565.66,1372.37C3565.66,1373.69 3564.59,1374.76 3563.27,1374.76C3561.95,1374.76 3560.88,1373.69 3560.88,1372.37L3560.88,1367.55ZM3560.88,1377.19C3560.88,1375.87 3561.95,1374.8 3563.27,1374.8C3564.59,1374.8 3565.66,1375.87 3565.66,1377.19L3565.66,1379.6C3565.66,1380.91 3564.59,1381.99 3563.27,1381.99C3561.95,1381.99 3560.88,1380.91 3560.88,1379.6L3560.88,1377.19Z" style="fill:rgb(251,251,251);fill-opacity:0.41;"/>
    <path d="M1602.45,1019.62C1603.77,1019.62 1604.84,1018.55 1604.84,1017.23C1604.84,1015.91 1603.76,1014.84 1602.44,1014.84C1601.12,1014.84 1600.05,1015.92 1600.06,1017.24C1600.06,1018.56 1601.13,1019.63 1602.45,1019.62Z" style="fill:none;stroke:rgb(251,251,251);stroke-opacity:0.41;stroke-width:4.78px;"/>
    <path d="M1488.57,1019.8C1487.25,1019.8 1486.18,1018.73 1486.17,1017.41C1486.17,1016.09 1487.24,1015.02 1488.56,1015.02C1489.88,1015.02 1490.95,1016.09 1490.96,1017.41C1490.96,1018.73 1489.89,1019.8 1488.57,1019.8Z" style="fill:none;stroke:rgb(251,251,251);stroke-opacity:0.41;stroke-width:4.78px;"/>
    <path d="M1600.05,1014.84C1601.37,1014.84 1602.44,1015.91 1602.45,1017.23C1602.45,1018.55 1601.38,1019.62 1600.06,1019.63L1597.58,1019.63C1596.26,1019.63 1595.19,1018.56 1595.18,1017.24C1595.18,1015.92 1596.25,1014.85 1597.57,1014.85L1600.05,1014.84ZM1592.61,1014.86C1593.93,1014.85 1595.01,1015.92 1595.01,1017.24C1595.01,1018.56 1593.94,1019.64 1592.62,1019.64L1587.66,1019.65C1586.34,1019.65 1585.27,1018.58 1585.27,1017.26C1585.26,1015.94 1586.33,1014.87 1587.65,1014.86L1592.61,1014.86ZM1582.69,1014.87C1584.02,1014.87 1585.09,1015.94 1585.09,1017.26C1585.09,1018.58 1584.02,1019.65 1582.7,1019.65L1577.74,1019.66C1576.42,1019.66 1575.35,1018.59 1575.35,1017.27C1575.35,1015.95 1576.42,1014.88 1577.74,1014.88L1582.69,1014.87ZM1572.78,1014.89C1574.1,1014.88 1575.17,1015.96 1575.17,1017.27C1575.17,1018.6 1574.1,1019.67 1572.78,1019.67L1567.83,1019.68C1566.51,1019.68 1565.43,1018.61 1565.43,1017.29C1565.43,1015.97 1566.5,1014.9 1567.82,1014.89L1572.78,1014.89ZM1562.86,1014.9C1564.18,1014.9 1565.25,1015.97 1565.25,1017.29C1565.26,1018.61 1564.19,1019.68 1562.87,1019.69L1557.91,1019.69C1556.59,1019.7 1555.51,1018.62 1555.51,1017.31C1555.51,1015.99 1556.58,1014.91 1557.9,1014.91L1562.86,1014.9ZM1552.94,1014.92C1554.26,1014.92 1555.33,1015.99 1555.34,1017.31C1555.34,1018.63 1554.27,1019.7 1552.95,1019.7L1547.99,1019.71C1546.67,1019.71 1545.6,1018.64 1545.59,1017.32C1545.59,1016 1546.66,1014.93 1547.98,1014.93L1552.94,1014.92ZM1543.02,1014.93C1544.34,1014.93 1545.42,1016 1545.42,1017.32C1545.42,1018.64 1544.35,1019.72 1543.03,1019.72L1538.07,1019.72C1536.75,1019.73 1535.68,1018.66 1535.68,1017.34C1535.67,1016.02 1536.74,1014.94 1538.06,1014.94L1543.02,1014.93ZM1533.11,1014.95C1534.42,1014.95 1535.5,1016.02 1535.5,1017.34C1535.5,1018.66 1534.43,1019.73 1533.11,1019.73L1528.15,1019.74C1526.83,1019.74 1525.76,1018.67 1525.76,1017.35C1525.76,1016.03 1526.83,1014.96 1528.15,1014.96L1533.11,1014.95ZM1523.19,1014.97C1524.51,1014.96 1525.58,1016.03 1525.58,1017.35C1525.58,1018.67 1524.51,1019.75 1523.19,1019.75L1518.24,1019.76C1516.91,1019.76 1515.84,1018.69 1515.84,1017.37C1515.84,1016.05 1516.91,1014.98 1518.23,1014.97L1523.19,1014.97ZM1513.27,1014.98C1514.59,1014.98 1515.66,1016.05 1515.66,1017.37C1515.67,1018.69 1514.6,1019.76 1513.28,1019.76L1508.32,1019.77C1507,1019.77 1505.92,1018.7 1505.92,1017.38C1505.92,1016.06 1506.99,1014.99 1508.31,1014.99L1513.27,1014.98ZM1503.35,1015C1504.67,1014.99 1505.74,1016.06 1505.75,1017.38C1505.75,1018.7 1504.68,1019.78 1503.36,1019.78L1498.4,1019.79C1497.08,1019.79 1496.01,1018.72 1496,1017.4C1496,1016.08 1497.07,1015.01 1498.39,1015L1503.35,1015ZM1493.43,1015.01C1494.75,1015.01 1495.83,1016.08 1495.83,1017.4C1495.83,1018.72 1494.76,1019.79 1493.44,1019.8L1490.96,1019.8C1489.64,1019.8 1488.57,1018.73 1488.57,1017.41C1488.56,1016.09 1489.63,1015.02 1490.95,1015.01L1493.43,1015.01Z" style="fill:rgb(251,251,251);fill-opacity:0.41;"/>
    <path d="M1602.45,496.089C1603.77,496.087 1604.84,495.013 1604.84,493.693C1604.84,492.373 1603.76,491.303 1602.44,491.305C1601.12,491.308 1600.05,492.381 1600.06,493.701C1600.06,495.021 1601.13,496.091 1602.45,496.089Z" style="fill:none;stroke:rgb(251,251,251);stroke-opacity:0.41;stroke-width:4.78px;"/>
    <path d="M1488.57,496.267C1487.25,496.269 1486.18,495.199 1486.17,493.88C1486.17,492.56 1487.24,491.486 1488.56,491.484C1489.88,491.482 1490.95,492.552 1490.96,493.872C1490.96,495.192 1489.89,496.265 1488.57,496.267Z" style="fill:none;stroke:rgb(251,251,251);stroke-opacity:0.41;stroke-width:4.78px;"/>
    <path d="M1600.05,491.309C1601.37,491.307 1602.44,492.377 1602.45,493.697C1602.45,495.017 1601.38,496.09 1600.06,496.092L1597.58,496.096C1596.26,496.098 1595.19,495.028 1595.18,493.708C1595.18,492.388 1596.25,491.315 1597.57,491.313L1600.05,491.309ZM1592.61,491.321C1593.93,491.319 1595.01,492.389 1595.01,493.709C1595.01,495.029 1593.94,496.102 1592.62,496.104L1587.66,496.112C1586.34,496.114 1585.27,495.044 1585.27,493.724C1585.26,492.404 1586.33,491.331 1587.65,491.329L1592.61,491.321ZM1582.69,491.336C1584.02,491.334 1585.09,492.404 1585.09,493.724C1585.09,495.044 1584.02,496.118 1582.7,496.12L1577.74,496.127C1576.42,496.129 1575.35,495.06 1575.35,493.74C1575.35,492.42 1576.42,491.346 1577.74,491.344L1582.69,491.336ZM1572.78,491.352C1574.1,491.35 1575.17,492.42 1575.17,493.74C1575.17,495.06 1574.1,496.133 1572.78,496.135L1567.83,496.143C1566.51,496.145 1565.43,495.075 1565.43,493.755C1565.43,492.435 1566.5,491.362 1567.82,491.36L1572.78,491.352ZM1562.86,491.368C1564.18,491.366 1565.25,492.435 1565.25,493.755C1565.26,495.075 1564.19,496.149 1562.87,496.151L1557.91,496.159C1556.59,496.161 1555.51,495.091 1555.51,493.771C1555.51,492.451 1556.58,491.377 1557.9,491.375L1562.86,491.368ZM1552.94,491.383C1554.26,491.381 1555.33,492.451 1555.34,493.771C1555.34,495.091 1554.27,496.164 1552.95,496.166L1547.99,496.174C1546.67,496.176 1545.6,495.106 1545.59,493.786C1545.59,492.466 1546.66,491.393 1547.98,491.391L1552.94,491.383ZM1543.02,491.399C1544.34,491.397 1545.42,492.467 1545.42,493.787C1545.42,495.106 1544.35,496.18 1543.03,496.182L1538.07,496.19C1536.75,496.192 1535.68,495.122 1535.68,493.802C1535.67,492.482 1536.74,491.409 1538.06,491.407L1543.02,491.399ZM1533.11,491.414C1534.42,491.412 1535.5,492.482 1535.5,493.802C1535.5,495.122 1534.43,496.195 1533.11,496.197L1528.15,496.205C1526.83,496.207 1525.76,495.137 1525.76,493.817C1525.76,492.497 1526.83,491.424 1528.15,491.422L1533.11,491.414ZM1523.19,491.43C1524.51,491.428 1525.58,492.498 1525.58,493.818C1525.58,495.138 1524.51,496.211 1523.19,496.213L1518.24,496.221C1516.91,496.223 1515.84,495.153 1515.84,493.833C1515.84,492.513 1516.91,491.44 1518.23,491.438L1523.19,491.43ZM1513.27,491.445C1514.59,491.443 1515.66,492.513 1515.66,493.833C1515.67,495.153 1514.6,496.226 1513.28,496.229L1508.32,496.236C1507,496.238 1505.92,495.168 1505.92,493.849C1505.92,492.529 1506.99,491.455 1508.31,491.453L1513.27,491.445ZM1503.35,491.461C1504.67,491.459 1505.74,492.529 1505.75,493.849C1505.75,495.169 1504.68,496.242 1503.36,496.244L1498.4,496.252C1497.08,496.254 1496.01,495.184 1496,493.864C1496,492.544 1497.07,491.471 1498.39,491.469L1503.35,491.461ZM1493.43,491.477C1494.75,491.474 1495.83,492.544 1495.83,493.864C1495.83,495.184 1494.76,496.258 1493.44,496.26L1490.96,496.264C1489.64,496.266 1488.57,495.196 1488.57,493.876C1488.56,492.556 1489.63,491.483 1490.95,491.48L1493.43,491.477Z" style="fill:rgb(251,251,251);fill-opacity:0.41;"/>
    <path d="M974.485,1304.21C975.631,1303.56 976.029,1302.1 975.373,1300.95C974.717,1299.8 973.255,1299.41 972.109,1300.06C970.964,1300.72 970.566,1302.18 971.222,1303.33C971.877,1304.47 973.34,1304.87 974.485,1304.21Z" style="fill:none;stroke:rgb(251,251,251);stroke-opacity:0.41;stroke-width:4.78px;"/>
    <path d="M760.179,1362.71C759.127,1363.5 757.626,1363.3 756.828,1362.25C756.031,1361.19 756.237,1359.69 757.289,1358.89C758.341,1358.1 759.842,1358.3 760.64,1359.36C761.437,1360.41 761.231,1361.91 760.179,1362.71Z" style="fill:none;stroke:rgb(251,251,251);stroke-opacity:0.41;stroke-width:4.78px;"/>
    <path d="M969.984,1301.28C971.113,1300.6 972.585,1300.96 973.268,1302.09C973.951,1303.22 973.589,1304.69 972.46,1305.37C971.782,1305.78 971.098,1306.2 970.407,1306.63C969.286,1307.33 967.81,1306.98 967.115,1305.86C966.419,1304.74 966.765,1303.26 967.887,1302.56C968.592,1302.13 969.292,1301.7 969.984,1301.28ZM963.743,1305.18C964.854,1304.47 966.335,1304.79 967.046,1305.9C967.757,1307.02 967.432,1308.5 966.32,1309.21C964.982,1310.06 963.622,1310.94 962.242,1311.84C961.134,1312.56 959.652,1312.24 958.934,1311.13C958.216,1310.02 958.533,1308.54 959.641,1307.82C961.029,1306.92 962.397,1306.04 963.743,1305.18ZM955.559,1310.47C956.667,1309.75 958.149,1310.07 958.865,1311.18C959.582,1312.29 959.264,1313.77 958.155,1314.49C956.803,1315.36 955.433,1316.24 954.047,1317.12C952.933,1317.83 951.454,1317.5 950.745,1316.39C950.036,1315.28 950.364,1313.8 951.477,1313.09C952.855,1312.21 954.216,1311.34 955.559,1310.47ZM947.382,1315.66C948.504,1314.97 949.979,1315.32 950.675,1316.44C951.371,1317.56 951.025,1319.03 949.903,1319.73C948.522,1320.59 947.125,1321.44 945.713,1322.28C944.58,1322.96 943.11,1322.59 942.434,1321.45C941.757,1320.32 942.127,1318.85 943.261,1318.18C944.649,1317.35 946.023,1316.51 947.382,1315.66ZM939.101,1320.6C940.249,1319.95 941.71,1320.35 942.362,1321.5C943.015,1322.65 942.613,1324.11 941.465,1324.76C940.04,1325.57 938.601,1326.37 937.149,1327.14C935.984,1327.76 934.534,1327.32 933.913,1326.16C933.291,1324.99 933.731,1323.54 934.896,1322.92C936.31,1322.17 937.713,1321.39 939.101,1320.6ZM930.635,1325.11C931.819,1324.53 933.254,1325.02 933.839,1326.2C934.424,1327.38 933.938,1328.82 932.754,1329.4C931.273,1330.13 929.779,1330.84 928.274,1331.52C927.069,1332.06 925.653,1331.52 925.112,1330.31C924.572,1329.11 925.11,1327.69 926.315,1327.15C927.766,1326.5 929.207,1325.82 930.635,1325.11ZM921.929,1329.01C923.155,1328.52 924.547,1329.12 925.036,1330.35C925.525,1331.58 924.926,1332.97 923.7,1333.46C922.153,1334.07 920.595,1334.65 919.027,1335.19C917.779,1335.62 916.417,1334.95 915.99,1333.7C915.562,1332.45 916.228,1331.09 917.477,1330.66C918.971,1330.15 920.455,1329.6 921.929,1329.01ZM912.959,1332.08C914.23,1331.72 915.552,1332.46 915.91,1333.73C916.267,1335 915.526,1336.32 914.255,1336.68C912.643,1337.13 911.02,1337.54 909.388,1337.89C908.098,1338.17 906.825,1337.35 906.547,1336.05C906.27,1334.76 907.092,1333.49 908.383,1333.21C909.917,1332.88 911.443,1332.5 912.959,1332.08ZM903.758,1334.04C905.064,1333.86 906.277,1334.77 906.464,1336.07C906.651,1337.38 905.742,1338.59 904.435,1338.78C902.771,1339.02 901.097,1339.19 899.416,1339.31C898.099,1339.39 896.959,1338.39 896.871,1337.08C896.784,1335.76 897.783,1334.62 899.1,1334.53C900.66,1334.43 902.213,1334.27 903.758,1334.04ZM894.431,1334.65C895.751,1334.67 896.806,1335.76 896.786,1337.08C896.765,1338.4 895.677,1339.46 894.357,1339.44C893.439,1339.42 892.519,1339.39 891.597,1339.33C890.866,1339.28 890.126,1339.24 889.377,1339.19C888.06,1339.1 887.061,1337.96 887.148,1336.64C887.235,1335.33 888.374,1334.33 889.692,1334.41C890.434,1334.46 891.168,1334.51 891.892,1334.56C892.74,1334.61 893.587,1334.64 894.431,1334.65ZM884.846,1334.08C886.163,1334.17 887.157,1335.32 887.065,1336.63C886.973,1337.95 885.829,1338.95 884.512,1338.85C882.929,1338.74 881.31,1338.63 879.659,1338.51C878.342,1338.42 877.347,1337.28 877.439,1335.96C877.53,1334.64 878.674,1333.65 879.991,1333.74C881.643,1333.86 883.262,1333.97 884.846,1334.08ZM875.124,1333.41C876.442,1333.5 877.441,1334.64 877.356,1335.95C877.27,1337.27 876.131,1338.27 874.814,1338.19C873.226,1338.08 871.612,1337.98 869.974,1337.89C868.657,1337.81 867.648,1336.68 867.724,1335.36C867.8,1334.05 868.932,1333.04 870.249,1333.11C871.899,1333.21 873.525,1333.31 875.124,1333.41ZM865.366,1332.86C866.684,1332.92 867.704,1334.04 867.641,1335.36C867.579,1336.68 866.457,1337.7 865.139,1337.63C863.547,1337.56 861.935,1337.49 860.306,1337.43C858.987,1337.39 857.953,1336.28 858,1334.96C858.046,1333.64 859.155,1332.61 860.474,1332.65C862.123,1332.71 863.755,1332.78 865.366,1332.86ZM855.575,1332.52C856.895,1332.54 857.944,1333.64 857.916,1334.95C857.889,1336.28 856.795,1337.32 855.476,1337.3C853.881,1337.26 852.272,1337.24 850.649,1337.24C849.329,1337.23 848.262,1336.15 848.268,1334.83C848.274,1333.51 849.35,1332.45 850.67,1332.45C852.319,1332.46 853.955,1332.48 855.575,1332.52ZM845.76,1332.48C847.08,1332.46 848.166,1333.51 848.184,1334.83C848.203,1336.15 847.146,1337.24 845.826,1337.26C844.231,1337.28 842.625,1337.32 841.009,1337.37C839.689,1337.41 838.582,1336.38 838.538,1335.06C838.493,1333.74 839.528,1332.63 840.848,1332.59C842.496,1332.54 844.134,1332.5 845.76,1332.48ZM835.934,1332.81C837.252,1332.74 838.381,1333.75 838.454,1335.06C838.527,1336.38 837.517,1337.51 836.199,1337.58C834.606,1337.67 833.006,1337.78 831.399,1337.91C830.083,1338.01 828.93,1337.03 828.827,1335.71C828.723,1334.39 829.707,1333.24 831.023,1333.14C832.667,1333.01 834.305,1332.9 835.934,1332.81ZM826.117,1333.59C827.43,1333.45 828.607,1334.4 828.743,1335.72C828.88,1337.03 827.925,1338.21 826.612,1338.34C825.027,1338.51 823.436,1338.69 821.842,1338.9C820.533,1339.07 819.331,1338.15 819.16,1336.84C818.989,1335.53 819.912,1334.33 821.221,1334.16C822.858,1333.94 824.49,1333.75 826.117,1333.59ZM816.338,1334.87C817.641,1334.66 818.869,1335.55 819.077,1336.85C819.285,1338.16 818.396,1339.38 817.093,1339.59C815.521,1339.84 813.946,1340.12 812.37,1340.42C811.073,1340.66 809.82,1339.81 809.573,1338.52C809.326,1337.22 810.178,1335.97 811.474,1335.72C813.098,1335.41 814.719,1335.13 816.338,1334.87ZM806.635,1336.72C807.923,1336.43 809.203,1337.25 809.491,1338.53C809.778,1339.82 808.966,1341.1 807.678,1341.39C806.126,1341.74 804.575,1342.11 803.023,1342.51C801.745,1342.84 800.44,1342.07 800.11,1340.79C799.78,1339.51 800.549,1338.21 801.827,1337.88C803.43,1337.46 805.033,1337.08 806.635,1336.72ZM797.058,1339.2C798.324,1338.82 799.655,1339.55 800.029,1340.81C800.402,1342.08 799.678,1343.41 798.412,1343.78C796.89,1344.23 795.369,1344.71 793.852,1345.22C792.6,1345.64 791.244,1344.96 790.825,1343.71C790.406,1342.46 791.083,1341.1 792.334,1340.68C793.906,1340.16 795.481,1339.66 797.058,1339.2ZM787.666,1342.34C788.901,1341.88 790.281,1342.5 790.746,1343.74C791.211,1344.97 790.585,1346.35 789.349,1346.82C787.867,1347.37 786.387,1347.96 784.913,1348.58C783.696,1349.09 782.293,1348.52 781.781,1347.3C781.27,1346.09 781.843,1344.68 783.06,1344.17C784.59,1343.53 786.126,1342.92 787.666,1342.34ZM778.526,1346.18C779.722,1345.62 781.146,1346.14 781.704,1347.34C782.263,1348.53 781.745,1349.96 780.549,1350.52C779.116,1351.18 777.689,1351.89 776.267,1352.62C775.094,1353.23 773.651,1352.77 773.045,1351.59C772.439,1350.42 772.9,1348.98 774.073,1348.37C775.551,1347.61 777.035,1346.88 778.526,1346.18ZM769.71,1350.74C770.857,1350.08 772.319,1350.49 772.971,1351.63C773.623,1352.78 773.221,1354.24 772.074,1354.89C770.701,1355.67 769.335,1356.49 767.977,1357.33C766.857,1358.03 765.381,1357.69 764.682,1356.57C763.984,1355.45 764.326,1353.97 765.446,1353.28C766.859,1352.39 768.281,1351.55 769.71,1350.74ZM761.289,1355.99C762.379,1355.24 763.868,1355.53 764.612,1356.62C765.355,1357.71 765.074,1359.2 763.983,1359.94C763.329,1360.39 762.677,1360.84 762.027,1361.3C760.952,1362.07 759.457,1361.82 758.692,1360.74C757.926,1359.67 758.177,1358.17 759.252,1357.41C759.929,1356.92 760.608,1356.45 761.289,1355.99Z" style="fill:rgb(251,251,251);fill-opacity:0.41;"/>
</svg>
