<?xml version="1.0" encoding="UTF-8" standalone="no"?>
<!DOCTYPE svg PUBLIC "-//W3C//DTD SVG 1.1//EN" "http://www.w3.org/Graphics/SVG/1.1/DTD/svg11.dtd">
<svg width="100%" height="100%" viewBox="0 0 3840 2160" version="1.1" xmlns="http://www.w3.org/2000/svg" xmlns:xlink="http://www.w3.org/1999/xlink" xml:space="preserve" xmlns:serif="http://www.serif.com/" style="fill-rule:evenodd;clip-rule:evenodd;stroke-linejoin:round;stroke-miterlimit:2;">
    <path id="Solitary-Confinment-Corridor" serif:id="Solitary Confinment Corridor" d="M1675.95,637.639L1675.41,681.647L1710.19,713.935L1695.8,725.857L1712.88,742.05L1674.51,775.357L1658.65,760.022L1642.3,773.296L1606.97,734.529L1464.4,734.523L1464.56,744.87L1342.4,744.101L1343.31,734.518L1270.38,734.515L1269.62,744.101L1148.77,743.211L1149.08,734.511L1112.99,734.509L1075.79,763.449L984.732,764.62L969.406,776.302L919.599,723.908L935.575,713.274L944.942,658.906L1020.38,594.134L1092.14,593.884L1091.89,604.411L1096.27,604.66L1127.64,637.704L1164.96,637.699L1165.26,624.194L1284.34,624.887L1283.92,637.685L1355.34,637.302L1355.69,624.887L1474.21,624.887L1474.55,639.83L1675.95,637.639Z"/>
    <path id="Cell-S3" serif:id="Cell S3" d="M1507.8,493.025L1501.14,616.281L1474.57,616.909L1474.21,624.887L1355.69,624.887L1355.98,617.489L1334.31,617.669L1346.52,492.747L1507.8,493.025Z"/>
    <path id="Cell-S5" serif:id="Cell S5" d="M1320.08,494.205L1308.7,617.038L1284.34,617.079L1284.34,624.887L1165.26,624.194L1164.98,617.28L1143.81,617.316L1158.8,494.205L1320.08,494.205Z"/>
    <path id="Cell-S4" serif:id="Cell S4" d="M1102.12,767.967L1086.16,879.004L829.737,881.036L857.843,735.351L903.582,735.631L919.599,723.908L969.406,776.302L968.986,789.935L1073.89,790.75L1102.12,767.967Z"/>
    <path id="Cell-S6" serif:id="Cell S6" d="M1140.43,494.574L1125.86,612.55L1102.12,583.984L1092.72,583.985L1092.14,593.884L1020.38,594.134L1020.3,582.88L921.547,655.673L910.761,713.274L863.88,712.829L900.313,491.798L1140.43,494.574Z"/>
    <path id="Cell-S2" serif:id="Cell S2" d="M1294.85,756.675L1281.53,881.036L1106.65,880.203L1123.86,755.01L1147.7,755.242L1148.77,743.211L1269.62,744.101L1269.21,756.425L1294.85,756.675Z"/>
    <path id="Cell-G2" serif:id="Cell G2" d="M1687.31,1268L1679.05,1574.18L1537.9,1574.52L1547.84,1404.04L1534.47,1404.63L1537.25,1314.18L1553,1315.45L1554.83,1284.13L1633.4,1212.73L1687.31,1268Z"/>
    <path id="General-Population-Corridor" serif:id="General Population Corridor" d="M1468.48,1209.43L1482.26,1195.81L1542.29,1259.86L1525.8,1273.17L1524.8,1313.28L1537.25,1313.93L1534.47,1404.63L1520.6,1404.65L1520,1419.64L1465.44,1420.31L1464.45,1432.96L1367.09,1432.16L1366.98,1419.48L1315.92,1419.42L1318.44,1390.51L1301.96,1391.5L1310.81,1299.96L1328.64,1300.18L1334.35,1208.01L1350.15,1208.1L1350.33,1194.97L1428.03,1195.24L1428.05,1207.99L1468.48,1209.43Z"/>
    <path id="Cell-G4" serif:id="Cell G4" d="M1517.38,1449.27L1510.16,1575.85L1159.85,1575.57L1174,1447.88L1366.38,1448.66L1366.93,1432.16L1464.45,1432.96L1464.09,1449.05L1517.38,1449.27Z"/>
    <path id="Cell-G3" serif:id="Cell G3" d="M1306.69,1209.43L1299.36,1298.83L1310.81,1299.35L1301.96,1391.5L1290.74,1391.04L1288.09,1421.23L1177.89,1420.67L1202.32,1209.43L1306.69,1209.43Z"/>
    <path id="General-Population-Entrance" serif:id="General Population Entrance" d="M1639.64,1063.15L1659.19,1044.6L1700.11,1085.25L1681.36,1104.28L1694.25,1120.71L1687.31,1268L1613.64,1192.47L1542.29,1259.86L1482.26,1195.81L1553,1129.88L1536.51,1112.09L1537.9,1052.26L1627.57,1052.04L1639.64,1063.15Z"/>
    <path id="Cell-G1" serif:id="Cell G1" d="M1537.9,1052.26L1536.53,1111.46L1456.07,1183.38L1428,1183.1L1428.14,1195.24L1349.99,1194.96L1350.28,1182.32L1208.47,1180.89L1221.52,1052.51L1537.9,1052.26Z"/>
    <path id="Cell-M1" serif:id="Cell M1" d="M1874.6,1337.85L1875.13,1365.08L1886.3,1365.04L1886.14,1447L1873.42,1446.98L1873.34,1561.5L1771.29,1561.5L1773.45,1337.48L1874.6,1337.85Z"/>
    <path id="Cell-M3" serif:id="Cell M3" d="M1871.04,1591.34L1871.25,1709.12L1886.43,1709.28L1887.39,1799.37L1871.26,1799.67L1870.81,1814.55L1767.02,1814.55L1767.02,1590.45L1871.04,1591.34Z"/>
    <path id="Cell-M4" serif:id="Cell M4" d="M2160.41,1589.3L2160.41,1814.55L2060.51,1814.55L2059.94,1796.99L2041.97,1797.21L2042.53,1709.83L2057.69,1710.08L2055.27,1590.69L2160.41,1589.3Z"/>
    <path id="Cell-M2" serif:id="Cell M2" d="M2143.45,1339.29L2147.45,1557L2055.62,1557.4L2054.95,1444.9L2034.83,1445.04L2035.61,1365.57L2050.29,1365.41L2049.75,1339.29L2143.45,1339.29Z"/>
    <path id="Max-Security-Corridor" serif:id="Max Security Corridor" d="M2024.38,1365.49L2035.61,1365.57L2034.83,1445.04L2020.83,1444.98L2026.13,1710.05L2042.53,1709.83L2041.97,1797.21L2027.21,1797.42L2027.11,1811.72L1901.53,1811.31L1901.23,1799.45L1887.31,1799.37L1886.43,1709.12L1901.33,1708.93L1902.58,1447.07L1886.14,1447L1886.3,1365.04L1902.54,1364.84L1902.29,1338.21L1915.98,1338.21L1915.64,1326.05L2007.58,1326.05L2008.01,1337.91L2024.58,1338L2024.38,1365.49Z"/>
    <path id="Max-Security-Entrance" serif:id="Max Security Entrance" d="M2142.66,1284.53L2145.1,1313.1L2007.23,1311.56L2007.61,1325.8L1916.19,1326.05L1916.19,1315.64L1772.53,1315.64L1774.15,1282.9L1852.43,1209.8L1913.24,1210.53L1913.49,1180.89L2006.61,1180.89L2007.09,1209.71L2061.69,1209.26L2142.66,1284.53Z"/>
    <path id="Cell-D4" serif:id="Cell D4" d="M2974.44,1634.24L2864.59,1766.97L2758.6,1669.93L2771.79,1655.7L2762.11,1646.52L2848.67,1548.9L2855.66,1554.85L2867.22,1540.21L2974.44,1634.24Z"/>
    <path id="Cell-D3" serif:id="Cell D3" d="M3123.76,1448.53L2990.87,1609.48L2885.75,1518.05L2927.81,1469.65L2920.01,1462.75L2988.1,1382.18L2993.51,1385.73L3015.45,1359.09L3123.76,1448.53Z"/>
    <path id="Cell-D2" serif:id="Cell D2" d="M2859.89,1226.92L2761.9,1338.94L2721.04,1303.54L2717.13,1308.36L2644.83,1247.55L2651.84,1240.91L2617.8,1210.1L2711.62,1103.29L2859.89,1226.92Z"/>
    <path id="Cell-D1" serif:id="Cell D1" d="M2688.23,1081.43L2591.87,1184.33L2562.85,1159.21L2554.44,1167.47L2485.78,1110.47L2495.27,1100.67L2457.37,1069.85L2555.45,968.572L2688.23,1081.43Z"/>
    <path id="Death-Row-Floor" serif:id="Death Row Floor" d="M2968.72,1365.85L2988.1,1382.18L2920.01,1462.75L2902.4,1445L2827.9,1533.92L2848.67,1548.9L2762.11,1646.52L2748.35,1632.6L2732.08,1648.29L2623.21,1545.63L2697.15,1461.23L2443.8,1233.98L2370.32,1311.29L2293.87,1241.08L2307.79,1228.58L2297.89,1219.04L2383.12,1134.68L2391.14,1141.53L2439.58,1093.78L2473.3,1120.95L2485.78,1110.47L2554.44,1167.47L2539.03,1183.73L2631.32,1260.47L2644.83,1247.55L2717.13,1308.36L2703.22,1325.85L2768.2,1377.44L2881.47,1247.57L2986.31,1338.05L2968.72,1365.85Z"/>
    <path id="Death-Row-Entrance" serif:id="Death Row Entrance" d="M2297.3,1219.63L2283.65,1207.32L2270.45,1220.03L2216.71,1168.23L2212.91,1120.47L2225.7,1109.92L2202.22,1089.63L2241.83,1049.34L2262.08,1068.29L2275.37,1055.74L2325.35,1056.03L2379.83,1107.08L2366.28,1119.53L2383.12,1133.67L2297.3,1219.63Z"/>
    <path id="Cell-L1" serif:id="Cell L1" d="M2386.67,441.651L2374,454.471L2388.36,467.775L2327.03,524.56L2319.05,514.847L2288.99,541.939L2316.73,566.125L2252.5,619.163L2215.65,587.295L2229.47,575.28L2163.48,521.99L2315.17,385.36L2386.67,441.651Z"/>
    <path id="Cell-L3" serif:id="Cell L3" d="M2835.59,435.734L2739.95,530.443L2606.8,427.904L2603.48,431.802L2530.62,378.484L2535.46,372.966L2522.82,363.237L2617.49,274.384L2835.59,435.734Z"/>
    <path id="Low-Security-Corridor" serif:id="Low Security Corridor" d="M2603.54,431.848L2591.92,442.805L2727.97,544.485L2655.44,613.572L2640.21,601.444L2627.94,613.612L2579.32,575.943L2587.6,566.473L2548.51,535.522L2439.97,633.831L2415.49,614.909L2381.45,646.676L2322.16,597.594L2350.61,566.153L2327.86,545.093L2338.79,534.615L2327.03,524.56L2387.62,467.225L2401.12,477.262L2508.55,378.819L2518.99,388.573L2530.62,378.484L2603.54,431.848Z"/>
    <path id="Cell-L2" serif:id="Cell L2" d="M2627.94,613.612L2621.04,621.759L2637.01,631.609L2480.85,788.026L2415.66,733.054L2403.56,743.055L2361.83,708.763L2417.18,654.549L2444.19,673.463L2551.9,567.663L2572.21,583.66L2579.32,575.943L2627.94,613.612Z"/>
    <path id="Low-Security-Entrance" serif:id="Low Security Entrance" d="M2361.83,708.763L2403.56,743.055L2374.17,769.761L2265.49,770.197L2248.99,756.649L2231.61,775.971L2194.2,744.109L2210.46,727.895L2193.45,711.629L2191.04,606.699L2215.65,587.295L2252.5,619.163L2239.89,632.006L2262.6,651.061L2321.86,597.342L2381.45,646.676L2322.42,701.075L2346.22,721.015L2361.83,708.763Z"/>
    <path id="Cell-H1" serif:id="Cell H1" d="M2095.28,272.056L2096.11,354.757L1926.25,354.965L1925.87,365.999L1825.07,365.999L1824.86,355.173L1803.62,354.587L1804.45,271.847L2095.28,272.056Z"/>
    <path id="Cell-H3" serif:id="Cell H3" d="M2098.34,376.564L2104.03,539.872L1997.43,540.227L1997.48,525.304L1986.47,525.304L1985.62,467.392L1999.91,467.209L1998.9,376.564L2098.34,376.564Z"/>
    <path id="Cell-H2" serif:id="Cell H2" d="M1775.89,376.919L1775.43,467.003L1786.33,466.86L1786.81,523.705L1776.17,523.59L1776.03,538.055L1670.68,537.203L1677.08,377.488L1775.89,376.919Z"/>
    <path id="High-Security-Entrance" serif:id="High Security Entrance" d="M1922.28,555.133L2107.72,554.006L2106.21,629.302L2096.53,638.725L2024.99,638.772L2024.71,658.616L1964.53,658.616L1964.75,640.406L1806.15,639.073L1796.58,629.189L1796.41,554.276L1849.68,554.855L1849.68,540.976L1922.13,540.976L1922.28,555.133Z"/>
    <path id="High-Security-Corridor" serif:id="High Security Corridor" d="M1970.98,377.727L1972.56,466.339L1985.61,466.843L1986.47,524.834L1974.04,524.876L1974.04,540.976L1849.68,540.976L1850.23,532.926L1798.63,533.759L1798.99,523.67L1786.81,523.705L1786.7,466.801L1802.04,466.438L1804.18,376.894L1826.24,377.004L1825.9,366.017L1925.07,365.999L1926.18,377.503L1970.98,377.727Z"/>
    <path id="High-Security-Gate" serif:id="High Security Gate" d="M2093.68,658.906L2023.3,797.021L1881.19,796.408L1808.67,658.906L2093.68,658.906Z"/>
    <path id="Low-Security-Gate" serif:id="Low Security Gate" d="M2246.35,788.529L2254.35,909.447L2117.22,906.96L2023.3,797.021L2093.83,658.616L2246.35,788.529Z"/>
    <path id="General-Population-Gate" serif:id="General Population Gate" d="M1876.41,1023.12L1796.38,1180.89L1650.39,1035.86L1652.45,909.447L1790.33,910.861L1876.41,1023.12Z"/>
    <path id="Max-Security-Gate" serif:id="Max Security Gate" d="M2030.81,1021.85L2112.53,1180.89L1796.38,1180.89L1876.74,1022.49L2030.81,1021.85Z"/>
    <path id="Death-Row-Gate" serif:id="Death Row Gate" d="M2254.35,909.447L2259.27,1031.59L2112.53,1180.89L2030.81,1021.85L2117.22,906.96L2254.35,909.447Z"/>
    <path id="Solitary-Confinment-Gate" serif:id="Solitary Confinment Gate" d="M1652.45,909.447L1659.56,788.331L1808.67,658.906L1881.19,796.408L1790.33,910.861L1652.45,909.447Z"/>
    <path id="Admin-Area" serif:id="Admin Area" d="M2117.22,906.96L2030.81,1021.85L1876.74,1022.49L1790.33,910.861L1881.19,796.408L2023.3,797.021L2117.22,906.96Z"/>
    <path id="Cell-S1" serif:id="Cell S1" d="M1488.58,756.071L1479.38,883.102L1304.02,882.234L1316.25,755.801L1341.51,755.84L1342.4,744.101L1464.56,744.87L1464.17,756.515L1488.58,756.071Z"/>
    <ellipse cx="1960.01" cy="1019.37" rx="8.766" ry="8.981" style="fill:white;"/>
    <path d="M1960.01,1009.39C1965.4,1009.39 1969.78,1013.85 1969.78,1019.37C1969.78,1024.88 1965.4,1029.35 1960.01,1029.35C1954.63,1029.35 1950.25,1024.88 1950.25,1019.37C1950.25,1013.85 1954.63,1009.39 1960.01,1009.39ZM1960.01,1011.39C1955.72,1011.39 1952.25,1014.97 1952.25,1019.37C1952.25,1023.77 1955.72,1027.35 1960.01,1027.35C1964.31,1027.35 1967.78,1023.77 1967.78,1019.37C1967.78,1014.97 1964.31,1011.39 1960.01,1011.39Z"/>
    <ellipse cx="2058.61" cy="1076.33" rx="8.766" ry="8.981" style="fill:white;"/>
    <path d="M2058.61,1066.35C2064,1066.35 2068.38,1070.82 2068.38,1076.33C2068.38,1081.85 2064,1086.31 2058.61,1086.31C2053.23,1086.31 2048.85,1081.85 2048.85,1076.33C2048.85,1070.82 2053.23,1066.35 2058.61,1066.35ZM2058.61,1068.35C2054.32,1068.35 2050.85,1071.93 2050.85,1076.33C2050.85,1080.73 2054.32,1084.31 2058.61,1084.31C2062.91,1084.31 2066.38,1080.73 2066.38,1076.33C2066.38,1071.93 2062.91,1068.35 2058.61,1068.35Z"/>
    <ellipse cx="2220.63" cy="1071.02" rx="8.766" ry="8.981" style="fill:white;"/>
    <path d="M2220.63,1061.04C2226.01,1061.04 2230.4,1065.5 2230.4,1071.02C2230.4,1076.53 2226.01,1081 2220.63,1081C2215.25,1081 2210.86,1076.53 2210.86,1071.02C2210.86,1065.5 2215.25,1061.04 2220.63,1061.04ZM2220.63,1063.04C2216.34,1063.04 2212.86,1066.62 2212.86,1071.02C2212.86,1075.42 2216.34,1079 2220.63,1079C2224.92,1079 2228.4,1075.42 2228.4,1071.02C2228.4,1066.62 2224.92,1063.04 2220.63,1063.04Z"/>
    <ellipse cx="2342.62" cy="1174.58" rx="8.766" ry="8.981" style="fill:white;"/>
    <path d="M2342.62,1164.6C2348,1164.6 2352.39,1169.07 2352.39,1174.58C2352.39,1180.1 2348,1184.56 2342.62,1184.56C2337.24,1184.56 2332.85,1180.1 2332.85,1174.58C2332.85,1169.07 2337.24,1164.6 2342.62,1164.6ZM2342.62,1166.6C2338.33,1166.6 2334.85,1170.18 2334.85,1174.58C2334.85,1178.98 2338.33,1182.56 2342.62,1182.56C2346.91,1182.56 2350.39,1178.98 2350.39,1174.58C2350.39,1170.18 2346.91,1166.6 2342.62,1166.6Z"/>
    <ellipse cx="2517.34" cy="1130.9" rx="8.766" ry="8.981" style="fill:white;"/>
    <path d="M2517.34,1120.92C2522.72,1120.92 2527.11,1125.38 2527.11,1130.9C2527.11,1136.42 2522.72,1140.88 2517.34,1140.88C2511.96,1140.88 2507.58,1136.42 2507.58,1130.9C2507.58,1125.38 2511.96,1120.92 2517.34,1120.92ZM2517.34,1122.92C2513.05,1122.92 2509.58,1126.5 2509.58,1130.9C2509.58,1135.3 2513.05,1138.88 2517.34,1138.88C2521.64,1138.88 2525.11,1135.3 2525.11,1130.9C2525.11,1126.5 2521.64,1122.92 2517.34,1122.92Z"/>
    <ellipse cx="2683.17" cy="1278.94" rx="8.766" ry="8.981" style="fill:white;"/>
    <path d="M2683.17,1268.96C2688.55,1268.96 2692.94,1273.42 2692.94,1278.94C2692.94,1284.45 2688.55,1288.92 2683.17,1288.92C2677.79,1288.92 2673.4,1284.45 2673.4,1278.94C2673.4,1273.42 2677.79,1268.96 2683.17,1268.96ZM2683.17,1270.96C2678.88,1270.96 2675.4,1274.54 2675.4,1278.94C2675.4,1283.34 2678.88,1286.92 2683.17,1286.92C2687.46,1286.92 2690.94,1283.34 2690.94,1278.94C2690.94,1274.54 2687.46,1270.96 2683.17,1270.96Z"/>
    <ellipse cx="2956.63" cy="1413.63" rx="8.766" ry="8.981" style="fill:white;"/>
    <path d="M2956.63,1403.65C2962.01,1403.65 2966.39,1408.12 2966.39,1413.63C2966.39,1419.15 2962.01,1423.62 2956.63,1423.62C2951.24,1423.62 2946.86,1419.15 2946.86,1413.63C2946.86,1408.12 2951.24,1403.65 2956.63,1403.65ZM2956.63,1405.65C2952.33,1405.65 2948.86,1409.24 2948.86,1413.63C2948.86,1418.03 2952.33,1421.62 2956.63,1421.62C2960.92,1421.62 2964.39,1418.03 2964.39,1413.63C2964.39,1409.24 2960.92,1405.65 2956.63,1405.65Z"/>
    <ellipse cx="2807.32" cy="1592.81" rx="8.766" ry="8.981" style="fill:white;"/>
    <path d="M2807.32,1582.82C2812.7,1582.82 2817.09,1587.29 2817.09,1592.81C2817.09,1598.32 2812.7,1602.79 2807.32,1602.79C2801.93,1602.79 2797.55,1598.32 2797.55,1592.81C2797.55,1587.29 2801.93,1582.82 2807.32,1582.82ZM2807.32,1584.82C2803.03,1584.82 2799.55,1588.41 2799.55,1592.81C2799.55,1597.2 2803.03,1600.79 2807.32,1600.79C2811.61,1600.79 2815.09,1597.2 2815.09,1592.81C2815.09,1588.41 2811.61,1584.82 2807.32,1584.82Z"/>
    <ellipse cx="1834.29" cy="965.864" rx="8.766" ry="8.981" style="fill:white;"/>
    <path d="M1834.29,955.883C1839.67,955.883 1844.06,960.349 1844.06,965.864C1844.06,971.38 1839.67,975.846 1834.29,975.846C1828.91,975.846 1824.52,971.38 1824.52,965.864C1824.52,960.349 1828.91,955.883 1834.29,955.883ZM1834.29,957.883C1830,957.883 1826.52,961.466 1826.52,965.864C1826.52,970.263 1830,973.846 1834.29,973.846C1838.58,973.846 1842.06,970.263 1842.06,965.864C1842.06,961.466 1838.58,957.883 1834.29,957.883Z"/>
    <ellipse cx="2076.15" cy="963.962" rx="8.766" ry="8.981" style="fill:white;"/>
    <path d="M2076.15,953.981C2081.53,953.981 2085.91,958.447 2085.91,963.962C2085.91,969.478 2081.53,973.944 2076.15,973.944C2070.76,973.944 2066.38,969.478 2066.38,963.962C2066.38,958.447 2070.76,953.981 2076.15,953.981ZM2076.15,955.981C2071.85,955.981 2068.38,959.564 2068.38,963.962C2068.38,968.361 2071.85,971.944 2076.15,971.944C2080.44,971.944 2083.91,968.361 2083.91,963.962C2083.91,959.564 2080.44,955.981 2076.15,955.981Z"/>
    <ellipse cx="2071.27" cy="851.99" rx="8.766" ry="8.981" style="fill:white;"/>
    <path d="M2071.27,842.009C2076.65,842.009 2081.03,846.475 2081.03,851.99C2081.03,857.506 2076.65,861.972 2071.27,861.972C2065.88,861.972 2061.5,857.506 2061.5,851.99C2061.5,846.475 2065.88,842.009 2071.27,842.009ZM2071.27,844.009C2066.97,844.009 2063.5,847.592 2063.5,851.99C2063.5,856.389 2066.97,859.972 2071.27,859.972C2075.56,859.972 2079.03,856.389 2079.03,851.99C2079.03,847.592 2075.56,844.009 2071.27,844.009Z"/>
    <ellipse cx="1959.94" cy="798.858" rx="8.766" ry="8.981" style="fill:white;"/>
    <path d="M1959.94,788.876C1965.33,788.876 1969.71,793.342 1969.71,798.858C1969.71,804.373 1965.33,808.839 1959.94,808.839C1954.56,808.839 1950.18,804.373 1950.18,798.858C1950.18,793.342 1954.56,788.876 1959.94,788.876ZM1959.94,790.876C1955.65,790.876 1952.18,794.459 1952.18,798.858C1952.18,803.256 1955.65,806.839 1959.94,806.839C1964.24,806.839 1967.71,803.256 1967.71,798.858C1967.71,794.459 1964.24,790.876 1959.94,790.876Z"/>
    <ellipse cx="2208.92" cy="757.136" rx="8.766" ry="8.981" style="fill:white;"/>
    <path d="M2208.92,747.155C2214.3,747.155 2218.68,751.621 2218.68,757.136C2218.68,762.652 2214.3,767.117 2208.92,767.117C2203.53,767.117 2199.15,762.652 2199.15,757.136C2199.15,751.621 2203.53,747.155 2208.92,747.155ZM2208.92,749.155C2204.63,749.155 2201.15,752.738 2201.15,757.136C2201.15,761.534 2204.63,765.117 2208.92,765.117C2213.21,765.117 2216.68,761.534 2216.68,757.136C2216.68,752.738 2213.21,749.155 2208.92,749.155Z"/>
    <ellipse cx="2383.01" cy="726.004" rx="8.766" ry="8.981" style="fill:white;"/>
    <path d="M2383.01,716.022C2388.39,716.022 2392.77,720.488 2392.77,726.004C2392.77,731.519 2388.39,735.985 2383.01,735.985C2377.62,735.985 2373.24,731.519 2373.24,726.004C2373.24,720.488 2377.62,716.022 2383.01,716.022ZM2383.01,718.022C2378.71,718.022 2375.24,721.605 2375.24,726.004C2375.24,730.402 2378.71,733.985 2383.01,733.985C2387.3,733.985 2390.77,730.402 2390.77,726.004C2390.77,721.605 2387.3,718.022 2383.01,718.022Z"/>
    <ellipse cx="2350.6" cy="619.263" rx="8.766" ry="8.981" style="fill:white;"/>
    <path d="M2350.6,609.282C2355.99,609.282 2360.37,613.748 2360.37,619.263C2360.37,624.779 2355.99,629.245 2350.6,629.245C2345.22,629.245 2340.84,624.779 2340.84,619.263C2340.84,613.748 2345.22,609.282 2350.6,609.282ZM2350.6,611.282C2346.31,611.282 2342.84,614.865 2342.84,619.263C2342.84,623.662 2346.31,627.245 2350.6,627.245C2354.9,627.245 2358.37,623.662 2358.37,619.263C2358.37,614.865 2354.9,611.282 2350.6,611.282Z"/>
    <ellipse cx="2357.52" cy="493.28" rx="8.766" ry="8.981" style="fill:white;"/>
    <path d="M2357.52,483.299C2362.9,483.299 2367.28,487.764 2367.28,493.28C2367.28,498.795 2362.9,503.261 2357.52,503.261C2352.13,503.261 2347.75,498.795 2347.75,493.28C2347.75,487.764 2352.13,483.299 2357.52,483.299ZM2357.52,485.299C2353.22,485.299 2349.75,488.882 2349.75,493.28C2349.75,497.678 2353.22,501.261 2357.52,501.261C2361.81,501.261 2365.28,497.678 2365.28,493.28C2365.28,488.882 2361.81,485.299 2357.52,485.299Z"/>
    <ellipse cx="2231.87" cy="601.301" rx="8.766" ry="8.981" style="fill:white;"/>
    <path d="M2231.87,591.319C2237.25,591.319 2241.63,595.785 2241.63,601.301C2241.63,606.816 2237.25,611.282 2231.87,611.282C2226.49,611.282 2222.1,606.816 2222.1,601.301C2222.1,595.785 2226.49,591.319 2231.87,591.319ZM2231.87,593.319C2227.58,593.319 2224.1,596.902 2224.1,601.301C2224.1,605.699 2227.58,609.282 2231.87,609.282C2236.16,609.282 2239.63,605.699 2239.63,601.301C2239.63,596.902 2236.16,593.319 2231.87,593.319Z"/>
    <ellipse cx="2603.48" cy="593.214" rx="8.766" ry="8.981" style="fill:white;"/>
    <path d="M2603.48,583.232C2608.86,583.232 2613.24,587.698 2613.24,593.214C2613.24,598.729 2608.86,603.195 2603.48,603.195C2598.09,603.195 2593.71,598.729 2593.71,593.214C2593.71,587.698 2598.09,583.232 2603.48,583.232ZM2603.48,585.232C2599.18,585.232 2595.71,588.815 2595.71,593.214C2595.71,597.612 2599.18,601.195 2603.48,601.195C2607.77,601.195 2611.24,597.612 2611.24,593.214C2611.24,588.815 2607.77,585.232 2603.48,585.232Z"/>
    <ellipse cx="2565.35" cy="402.413" rx="8.766" ry="8.981" style="fill:white;"/>
    <path d="M2565.35,392.432C2570.74,392.432 2575.12,396.898 2575.12,402.413C2575.12,407.929 2570.74,412.395 2565.35,412.395C2559.97,412.395 2555.59,407.929 2555.59,402.413C2555.59,396.898 2559.97,392.432 2565.35,392.432ZM2565.35,394.432C2561.06,394.432 2557.59,398.015 2557.59,402.413C2557.59,406.812 2561.06,410.395 2565.35,410.395C2569.65,410.395 2573.12,406.812 2573.12,402.413C2573.12,398.015 2569.65,394.432 2565.35,394.432Z"/>
    <ellipse cx="2058.97" cy="732.357" rx="8.766" ry="8.981" style="fill:white;"/>
    <path d="M2058.97,722.376C2064.36,722.376 2068.74,726.842 2068.74,732.357C2068.74,737.873 2064.36,742.338 2058.97,742.338C2053.59,742.338 2049.21,737.873 2049.21,732.357C2049.21,726.842 2053.59,722.376 2058.97,722.376ZM2058.97,724.376C2054.68,724.376 2051.21,727.959 2051.21,732.357C2051.21,736.756 2054.68,740.338 2058.97,740.338C2063.27,740.338 2066.74,736.756 2066.74,732.357C2066.74,727.959 2063.27,724.376 2058.97,724.376Z"/>
    <ellipse cx="1999.87" cy="658.616" rx="8.766" ry="8.981" style="fill:white;"/>
    <path d="M1999.87,648.634C2005.25,648.634 2009.63,653.1 2009.63,658.616C2009.63,664.131 2005.25,668.597 1999.87,668.597C1994.49,668.597 1990.1,664.131 1990.1,658.616C1990.1,653.1 1994.49,648.634 1999.87,648.634ZM1999.87,650.634C1995.58,650.634 1992.1,654.217 1992.1,658.616C1992.1,663.014 1995.58,666.597 1999.87,666.597C2004.16,666.597 2007.63,663.014 2007.63,658.616C2007.63,654.217 2004.16,650.634 1999.87,650.634Z"/>
    <ellipse cx="1886.64" cy="543.762" rx="8.766" ry="8.981" style="fill:white;"/>
    <path d="M1886.64,533.781C1892.02,533.781 1896.4,538.247 1896.4,543.762C1896.4,549.278 1892.02,553.744 1886.64,553.744C1881.26,553.744 1876.87,549.278 1876.87,543.762C1876.87,538.247 1881.26,533.781 1886.64,533.781ZM1886.64,535.781C1882.35,535.781 1878.87,539.364 1878.87,543.762C1878.87,548.161 1882.35,551.744 1886.64,551.744C1890.93,551.744 1894.4,548.161 1894.4,543.762C1894.4,539.364 1890.93,535.781 1886.64,535.781Z"/>
    <ellipse cx="1986.47" cy="492.934" rx="8.766" ry="8.981" style="fill:white;"/>
    <path d="M1986.47,482.952C1991.85,482.952 1996.23,487.418 1996.23,492.934C1996.23,498.449 1991.85,502.915 1986.47,502.915C1981.08,502.915 1976.7,498.449 1976.7,492.934C1976.7,487.418 1981.08,482.952 1986.47,482.952ZM1986.47,484.952C1982.17,484.952 1978.7,488.535 1978.7,492.934C1978.7,497.332 1982.17,500.915 1986.47,500.915C1990.76,500.915 1994.23,497.332 1994.23,492.934C1994.23,488.535 1990.76,484.952 1986.47,484.952Z"/>
    <ellipse cx="1879.93" cy="365.999" rx="8.766" ry="8.981" style="fill:white;"/>
    <path d="M1879.93,356.018C1885.31,356.018 1889.69,360.484 1889.69,365.999C1889.69,371.515 1885.31,375.981 1879.93,375.981C1874.55,375.981 1870.16,371.515 1870.16,365.999C1870.16,360.484 1874.55,356.018 1879.93,356.018ZM1879.93,358.018C1875.64,358.018 1872.16,361.601 1872.16,365.999C1872.16,370.398 1875.64,373.981 1879.93,373.981C1884.22,373.981 1887.69,370.398 1887.69,365.999C1887.69,361.601 1884.22,358.018 1879.93,358.018Z"/>
    <ellipse cx="1786.7" cy="493.883" rx="8.766" ry="8.981" style="fill:white;"/>
    <path d="M1786.7,483.901C1792.08,483.901 1796.46,488.367 1796.46,493.883C1796.46,499.398 1792.08,503.864 1786.7,503.864C1781.31,503.864 1776.93,499.398 1776.93,493.883C1776.93,488.367 1781.31,483.901 1786.7,483.901ZM1786.7,485.901C1782.4,485.901 1778.93,489.484 1778.93,493.883C1778.93,498.281 1782.4,501.864 1786.7,501.864C1790.99,501.864 1794.46,498.281 1794.46,493.883C1794.46,489.484 1790.99,485.901 1786.7,485.901Z"/>
    <ellipse cx="2179.52" cy="907.292" rx="8.766" ry="8.981" style="fill:white;"/>
    <path d="M2179.52,897.31C2184.91,897.31 2189.29,901.776 2189.29,907.292C2189.29,912.807 2184.91,917.273 2179.52,917.273C2174.14,917.273 2169.76,912.807 2169.76,907.292C2169.76,901.776 2174.14,897.31 2179.52,897.31ZM2179.52,899.31C2175.23,899.31 2171.76,902.893 2171.76,907.292C2171.76,911.69 2175.23,915.273 2179.52,915.273C2183.82,915.273 2187.29,911.69 2187.29,907.292C2187.29,902.893 2183.82,899.31 2179.52,899.31Z"/>
    <ellipse cx="1842.83" cy="1087.29" rx="8.766" ry="8.981" style="fill:white;"/>
    <path d="M1842.83,1077.31C1848.22,1077.31 1852.6,1081.78 1852.6,1087.29C1852.6,1092.81 1848.22,1097.27 1842.83,1097.27C1837.45,1097.27 1833.07,1092.81 1833.07,1087.29C1833.07,1081.78 1837.45,1077.31 1842.83,1077.31ZM1842.83,1079.31C1838.54,1079.31 1835.07,1082.89 1835.07,1087.29C1835.07,1091.69 1838.54,1095.27 1842.83,1095.27C1847.13,1095.27 1850.6,1091.69 1850.6,1087.29C1850.6,1082.89 1847.13,1079.31 1842.83,1079.31Z"/>
    <ellipse cx="1678.55" cy="1063.44" rx="8.766" ry="8.981" style="fill:white;"/>
    <path d="M1678.55,1053.46C1683.93,1053.46 1688.31,1057.92 1688.31,1063.44C1688.31,1068.95 1683.93,1073.42 1678.55,1073.42C1673.16,1073.42 1668.78,1068.95 1668.78,1063.44C1668.78,1057.92 1673.16,1053.46 1678.55,1053.46ZM1678.55,1055.46C1674.25,1055.46 1670.78,1059.04 1670.78,1063.44C1670.78,1067.84 1674.25,1071.42 1678.55,1071.42C1682.84,1071.42 1686.31,1067.84 1686.31,1063.44C1686.31,1059.04 1682.84,1055.46 1678.55,1055.46Z"/>
    <ellipse cx="1511.02" cy="1226.09" rx="8.766" ry="8.981" style="fill:white;"/>
    <path d="M1511.02,1216.11C1516.4,1216.11 1520.78,1220.57 1520.78,1226.09C1520.78,1231.6 1516.4,1236.07 1511.02,1236.07C1505.63,1236.07 1501.25,1231.6 1501.25,1226.09C1501.25,1220.57 1505.63,1216.11 1511.02,1216.11ZM1511.02,1218.11C1506.72,1218.11 1503.25,1221.69 1503.25,1226.09C1503.25,1230.49 1506.72,1234.07 1511.02,1234.07C1515.31,1234.07 1518.78,1230.49 1518.78,1226.09C1518.78,1221.69 1515.31,1218.11 1511.02,1218.11Z"/>
    <ellipse cx="1389.03" cy="1191.93" rx="8.766" ry="8.981" style="fill:white;"/>
    <path d="M1389.03,1181.95C1394.41,1181.95 1398.8,1186.42 1398.8,1191.93C1398.8,1197.45 1394.41,1201.91 1389.03,1201.91C1383.65,1201.91 1379.26,1197.45 1379.26,1191.93C1379.26,1186.42 1383.65,1181.95 1389.03,1181.95ZM1389.03,1183.95C1384.74,1183.95 1381.26,1187.53 1381.26,1191.93C1381.26,1196.33 1384.74,1199.91 1389.03,1199.91C1393.32,1199.91 1396.8,1196.33 1396.8,1191.93C1396.8,1187.53 1393.32,1183.95 1389.03,1183.95Z"/>
    <ellipse cx="1415.05" cy="1432.65" rx="8.766" ry="8.981" style="fill:white;"/>
    <path d="M1415.05,1422.67C1420.44,1422.67 1424.82,1427.14 1424.82,1432.65C1424.82,1438.17 1420.44,1442.64 1415.05,1442.64C1409.67,1442.64 1405.29,1438.17 1405.29,1432.65C1405.29,1427.14 1409.67,1422.67 1415.05,1422.67ZM1415.05,1424.67C1410.76,1424.67 1407.29,1428.26 1407.29,1432.65C1407.29,1437.05 1410.76,1440.64 1415.05,1440.64C1419.35,1440.64 1422.82,1437.05 1422.82,1432.65C1422.82,1428.26 1419.35,1424.67 1415.05,1424.67Z"/>
    <ellipse cx="1307.49" cy="1341.14" rx="8.766" ry="8.981" style="fill:white;"/>
    <path d="M1307.49,1331.15C1312.87,1331.15 1317.25,1335.62 1317.25,1341.14C1317.25,1346.65 1312.87,1351.12 1307.49,1351.12C1302.1,1351.12 1297.72,1346.65 1297.72,1341.14C1297.72,1335.62 1302.1,1331.15 1307.49,1331.15ZM1307.49,1333.15C1303.19,1333.15 1299.72,1336.74 1299.72,1341.14C1299.72,1345.54 1303.19,1349.12 1307.49,1349.12C1311.78,1349.12 1315.25,1345.54 1315.25,1341.14C1315.25,1336.74 1311.78,1333.15 1307.49,1333.15Z"/>
    <ellipse cx="1537.9" cy="1354.58" rx="8.766" ry="8.981" style="fill:white;"/>
    <path d="M1537.9,1344.6C1543.28,1344.6 1547.67,1349.07 1547.67,1354.58C1547.67,1360.1 1543.28,1364.56 1537.9,1364.56C1532.52,1364.56 1528.13,1360.1 1528.13,1354.58C1528.13,1349.07 1532.52,1344.6 1537.9,1344.6ZM1537.9,1346.6C1533.61,1346.6 1530.13,1350.18 1530.13,1354.58C1530.13,1358.98 1533.61,1362.56 1537.9,1362.56C1542.19,1362.56 1545.67,1358.98 1545.67,1354.58C1545.67,1350.18 1542.19,1346.6 1537.9,1346.6Z"/>
    <ellipse cx="1661.02" cy="1239.1" rx="8.766" ry="8.981" style="fill:white;"/>
    <path d="M1661.02,1229.12C1666.4,1229.12 1670.78,1233.58 1670.78,1239.1C1670.78,1244.62 1666.4,1249.08 1661.02,1249.08C1655.63,1249.08 1651.25,1244.62 1651.25,1239.1C1651.25,1233.58 1655.63,1229.12 1661.02,1229.12ZM1661.02,1231.12C1656.72,1231.12 1653.25,1234.7 1653.25,1239.1C1653.25,1243.5 1656.72,1247.08 1661.02,1247.08C1665.31,1247.08 1668.78,1243.5 1668.78,1239.1C1668.78,1234.7 1665.31,1231.12 1661.02,1231.12Z"/>
    <ellipse cx="1532.56" cy="1077.53" rx="8.766" ry="8.981" style="fill:white;"/>
    <path d="M1532.56,1067.55C1537.94,1067.55 1542.33,1072.02 1542.33,1077.53C1542.33,1083.05 1537.94,1087.52 1532.56,1087.52C1527.18,1087.52 1522.79,1083.05 1522.79,1077.53C1522.79,1072.02 1527.18,1067.55 1532.56,1067.55ZM1532.56,1069.55C1528.27,1069.55 1524.79,1073.13 1524.79,1077.53C1524.79,1081.93 1528.27,1085.52 1532.56,1085.52C1536.85,1085.52 1540.33,1081.93 1540.33,1077.53C1540.33,1073.13 1536.85,1069.55 1532.56,1069.55Z"/>
    <ellipse cx="1958.82" cy="1180.89" rx="8.766" ry="8.981" style="fill:white;"/>
    <path d="M1958.82,1170.91C1964.2,1170.91 1968.58,1175.37 1968.58,1180.89C1968.58,1186.4 1964.2,1190.87 1958.82,1190.87C1953.43,1190.87 1949.05,1186.4 1949.05,1180.89C1949.05,1175.37 1953.43,1170.91 1958.82,1170.91ZM1958.82,1172.91C1954.52,1172.91 1951.05,1176.49 1951.05,1180.89C1951.05,1185.29 1954.52,1188.87 1958.82,1188.87C1963.11,1188.87 1966.58,1185.29 1966.58,1180.89C1966.58,1176.49 1963.11,1172.91 1958.82,1172.91Z"/>
    <ellipse cx="1958.82" cy="1322.39" rx="8.766" ry="8.981" style="fill:white;"/>
    <path d="M1958.82,1312.41C1964.2,1312.41 1968.58,1316.88 1968.58,1322.39C1968.58,1327.91 1964.2,1332.38 1958.82,1332.38C1953.43,1332.38 1949.05,1327.91 1949.05,1322.39C1949.05,1316.88 1953.43,1312.41 1958.82,1312.41ZM1958.82,1314.41C1954.52,1314.41 1951.05,1318 1951.05,1322.39C1951.05,1326.79 1954.52,1330.38 1958.82,1330.38C1963.11,1330.38 1966.58,1326.79 1966.58,1322.39C1966.58,1318 1963.11,1314.41 1958.82,1314.41Z"/>
    <ellipse cx="1886.14" cy="1400.47" rx="8.766" ry="8.981" style="fill:white;"/>
    <path d="M1886.14,1390.49C1891.52,1390.49 1895.9,1394.95 1895.9,1400.47C1895.9,1405.98 1891.52,1410.45 1886.14,1410.45C1880.76,1410.45 1876.37,1405.98 1876.37,1400.47C1876.37,1394.95 1880.76,1390.49 1886.14,1390.49ZM1886.14,1392.49C1881.85,1392.49 1878.37,1396.07 1878.37,1400.47C1878.37,1404.87 1881.85,1408.45 1886.14,1408.45C1890.43,1408.45 1893.9,1404.87 1893.9,1400.47C1893.9,1396.07 1890.43,1392.49 1886.14,1392.49Z"/>
    <ellipse cx="1886.14" cy="1755.59" rx="8.766" ry="8.981" style="fill:white;"/>
    <path d="M1886.14,1745.61C1891.52,1745.61 1895.9,1750.07 1895.9,1755.59C1895.9,1761.1 1891.52,1765.57 1886.14,1765.57C1880.76,1765.57 1876.37,1761.1 1876.37,1755.59C1876.37,1750.07 1880.76,1745.61 1886.14,1745.61ZM1886.14,1747.61C1881.85,1747.61 1878.37,1751.19 1878.37,1755.59C1878.37,1759.99 1881.85,1763.57 1886.14,1763.57C1890.43,1763.57 1893.9,1759.99 1893.9,1755.59C1893.9,1751.19 1890.43,1747.61 1886.14,1747.61Z"/>
    <ellipse cx="2042.53" cy="1755.59" rx="8.766" ry="8.981" style="fill:white;"/>
    <path d="M2042.53,1745.61C2047.91,1745.61 2052.3,1750.07 2052.3,1755.59C2052.3,1761.1 2047.91,1765.57 2042.53,1765.57C2037.15,1765.57 2032.77,1761.1 2032.77,1755.59C2032.77,1750.07 2037.15,1745.61 2042.53,1745.61ZM2042.53,1747.61C2038.24,1747.61 2034.77,1751.19 2034.77,1755.59C2034.77,1759.99 2038.24,1763.57 2042.53,1763.57C2046.82,1763.57 2050.3,1759.99 2050.3,1755.59C2050.3,1751.19 2046.82,1747.61 2042.53,1747.61Z"/>
    <ellipse cx="2034.83" cy="1398.84" rx="8.766" ry="8.981" style="fill:white;"/>
    <path d="M2034.83,1388.86C2040.22,1388.86 2044.6,1393.33 2044.6,1398.84C2044.6,1404.36 2040.22,1408.82 2034.83,1408.82C2029.45,1408.82 2025.07,1404.36 2025.07,1398.84C2025.07,1393.33 2029.45,1388.86 2034.83,1388.86ZM2034.83,1390.86C2030.54,1390.86 2027.07,1394.44 2027.07,1398.84C2027.07,1403.24 2030.54,1406.82 2034.83,1406.82C2039.13,1406.82 2042.6,1403.24 2042.6,1398.84C2042.6,1394.44 2039.13,1390.86 2034.83,1390.86Z"/>
    <ellipse cx="1724.64" cy="907.292" rx="8.766" ry="8.981" style="fill:white;"/>
    <path d="M1724.64,897.31C1730.03,897.31 1734.41,901.776 1734.41,907.292C1734.41,912.807 1730.03,917.273 1724.64,917.273C1719.26,917.273 1714.88,912.807 1714.88,907.292C1714.88,901.776 1719.26,897.31 1724.64,897.31ZM1724.64,899.31C1720.35,899.31 1716.88,902.893 1716.88,907.292C1716.88,911.69 1720.35,915.273 1724.64,915.273C1728.93,915.273 1732.41,911.69 1732.41,907.292C1732.41,902.893 1728.93,899.31 1724.64,899.31Z"/>
    <ellipse cx="1724.64" cy="907.292" rx="8.766" ry="8.981" style="fill:white;"/>
    <path d="M1724.64,897.31C1730.03,897.31 1734.41,901.776 1734.41,907.292C1734.41,912.807 1730.03,917.273 1724.64,917.273C1719.26,917.273 1714.88,912.807 1714.88,907.292C1714.88,901.776 1719.26,897.31 1724.64,897.31ZM1724.64,899.31C1720.35,899.31 1716.88,902.893 1716.88,907.292C1716.88,911.69 1720.35,915.273 1724.64,915.273C1728.93,915.273 1732.41,911.69 1732.41,907.292C1732.41,902.893 1728.93,899.31 1724.64,899.31Z"/>
    <ellipse cx="1693.93" cy="759.043" rx="8.766" ry="8.981" style="fill:white;"/>
    <path d="M1693.93,749.062C1699.32,749.062 1703.7,753.527 1703.7,759.043C1703.7,764.558 1699.32,769.024 1693.93,769.024C1688.55,769.024 1684.17,764.558 1684.17,759.043C1684.17,753.527 1688.55,749.062 1693.93,749.062ZM1693.93,751.062C1689.64,751.062 1686.17,754.644 1686.17,759.043C1686.17,763.441 1689.64,767.024 1693.93,767.024C1698.23,767.024 1701.7,763.441 1701.7,759.043C1701.7,754.644 1698.23,751.062 1693.93,751.062Z"/>
    <ellipse cx="1404.89" cy="744.469" rx="8.766" ry="8.981" style="fill:white;"/>
    <path d="M1404.89,734.488C1410.28,734.488 1414.66,738.954 1414.66,744.469C1414.66,749.985 1410.28,754.451 1404.89,754.451C1399.51,754.451 1395.13,749.985 1395.13,744.469C1395.13,738.954 1399.51,734.488 1404.89,734.488ZM1404.89,736.488C1400.6,736.488 1397.13,740.071 1397.13,744.469C1397.13,748.868 1400.6,752.451 1404.89,752.451C1409.18,752.451 1412.66,748.868 1412.66,744.469C1412.66,740.071 1409.18,736.488 1404.89,736.488Z"/>
    <ellipse cx="1410.1" cy="624.759" rx="8.766" ry="8.981" style="fill:white;"/>
    <path d="M1410.1,614.777C1415.48,614.777 1419.86,619.243 1419.86,624.759C1419.86,630.274 1415.48,634.74 1410.1,634.74C1404.71,634.74 1400.33,630.274 1400.33,624.759C1400.33,619.243 1404.71,614.777 1410.1,614.777ZM1410.1,616.777C1405.8,616.777 1402.33,620.36 1402.33,624.759C1402.33,629.157 1405.8,632.74 1410.1,632.74C1414.39,632.74 1417.86,629.157 1417.86,624.759C1417.86,620.36 1414.39,616.777 1410.1,616.777Z"/>
    <ellipse cx="1222.03" cy="622.33" rx="8.766" ry="8.981" style="fill:white;"/>
    <path d="M1222.03,612.349C1227.41,612.349 1231.8,616.814 1231.8,622.33C1231.8,627.845 1227.41,632.311 1222.03,632.311C1216.65,632.311 1212.26,627.845 1212.26,622.33C1212.26,616.814 1216.65,612.349 1222.03,612.349ZM1222.03,614.349C1217.74,614.349 1214.26,617.931 1214.26,622.33C1214.26,626.728 1217.74,630.311 1222.03,630.311C1226.32,630.311 1229.8,626.728 1229.8,622.33C1229.8,617.931 1226.32,614.349 1222.03,614.349Z"/>
    <ellipse cx="1213.26" cy="744.469" rx="8.766" ry="8.981" style="fill:white;"/>
    <path d="M1213.26,734.488C1218.65,734.488 1223.03,738.954 1223.03,744.469C1223.03,749.985 1218.65,754.451 1213.26,754.451C1207.88,754.451 1203.5,749.985 1203.5,744.469C1203.5,738.954 1207.88,734.488 1213.26,734.488ZM1213.26,736.488C1208.97,736.488 1205.5,740.071 1205.5,744.469C1205.5,748.868 1208.97,752.451 1213.26,752.451C1217.56,752.451 1221.03,748.868 1221.03,744.469C1221.03,740.071 1217.56,736.488 1213.26,736.488Z"/>
    <ellipse cx="949.206" cy="753.451" rx="8.766" ry="8.981" style="fill:white;"/>
    <path d="M949.206,743.469C954.59,743.469 958.973,747.935 958.973,753.451C958.973,758.966 954.59,763.432 949.206,763.432C943.823,763.432 939.44,758.966 939.44,753.451C939.44,747.935 943.823,743.469 949.206,743.469ZM949.206,745.469C944.913,745.469 941.44,749.052 941.44,753.451C941.44,757.849 944.913,761.432 949.206,761.432C953.499,761.432 956.973,757.849 956.973,753.451C956.973,749.052 953.499,745.469 949.206,745.469Z"/>
    <ellipse cx="1059.2" cy="593.884" rx="8.766" ry="8.981" style="fill:white;"/>
    <path d="M1059.2,583.903C1064.59,583.903 1068.97,588.369 1068.97,593.884C1068.97,599.4 1064.59,603.866 1059.2,603.866C1053.82,603.866 1049.43,599.4 1049.43,593.884C1049.43,588.369 1053.82,583.903 1059.2,583.903ZM1059.2,585.903C1054.91,585.903 1051.43,589.486 1051.43,593.884C1051.43,598.283 1054.91,601.866 1059.2,601.866C1063.49,601.866 1066.97,598.283 1066.97,593.884C1066.97,589.486 1063.49,585.903 1059.2,585.903Z"/>
    <ellipse cx="1847.71" cy="734.339" rx="8.766" ry="8.981" style="fill:white;"/>
    <path d="M1847.71,724.358C1853.1,724.358 1857.48,728.824 1857.48,734.339C1857.48,739.855 1853.1,744.321 1847.71,744.321C1842.33,744.321 1837.95,739.855 1837.95,734.339C1837.95,728.824 1842.33,724.358 1847.71,724.358ZM1847.71,726.358C1843.42,726.358 1839.95,729.941 1839.95,734.339C1839.95,738.738 1843.42,742.321 1847.71,742.321C1852.01,742.321 1855.48,738.738 1855.48,734.339C1855.48,729.941 1852.01,726.358 1847.71,726.358Z"/>
    <ellipse cx="1839.89" cy="844.413" rx="8.766" ry="8.981" style="fill:white;"/>
    <path d="M1839.89,834.432C1845.28,834.432 1849.66,838.898 1849.66,844.413C1849.66,849.929 1845.28,854.395 1839.89,854.395C1834.51,854.395 1830.13,849.929 1830.13,844.413C1830.13,838.898 1834.51,834.432 1839.89,834.432ZM1839.89,836.432C1835.6,836.432 1832.13,840.015 1832.13,844.413C1832.13,848.812 1835.6,852.395 1839.89,852.395C1844.19,852.395 1847.66,848.812 1847.66,844.413C1847.66,840.015 1844.19,836.432 1839.89,836.432Z"/>
</svg>
