<?xml version="1.0" encoding="UTF-8" standalone="no"?>
<!DOCTYPE svg PUBLIC "-//W3C//DTD SVG 1.1//EN" "http://www.w3.org/Graphics/SVG/1.1/DTD/svg11.dtd">
<svg width="100%" height="100%" viewBox="0 0 3840 2160" version="1.1" xmlns="http://www.w3.org/2000/svg" xmlns:xlink="http://www.w3.org/1999/xlink" xml:space="preserve" xmlns:serif="http://www.serif.com/" style="fill-rule:evenodd;clip-rule:evenodd;stroke-linejoin:round;stroke-miterlimit:2;">
    <path id="Kamchatka" d="M3029.76,284.092L3040.87,330.155L2996.73,350.428L2962.26,408L2929.61,406.793L2930.39,425.611L2952.73,453.814L2940.02,528.595L2892.68,503.558L2873.99,445.93L2880.68,413.02L2849.99,389.421L2838.49,409.802L2852.76,429.183L2824,443.661L2768.81,433.069L2765.07,462.096L2814.16,473.836L2845.72,499.511L2860.88,589.655L2833.16,660.493L2784.07,653.21L2772.39,630.569L2776.19,598.409L2778.69,547.136L2768.83,519.971L2710.56,495.885L2700.29,478.247L2660.32,459.603L2647.2,386.319L2664.36,361.029L2690.54,348.602L2714.83,356.511L2746.53,357.453L2749.2,320.396L2740,304.709L2753.47,280.261L2753.41,256.96L2769.4,236.724L2853.19,259.503L2875.75,243.389L3029.76,284.092Z"/>
    <path id="Yakutsk" d="M2690.04,222.154L2735.84,232.89L2752.93,257.145L2753.09,279.852L2739.54,304.585L2748.65,320.455L2746.18,357.039L2715.11,356.014L2690.28,348.235L2664.02,360.646L2646.99,385.465L2620.26,385.413L2548.51,425.611L2523.55,366.439L2499.67,329.071L2512.82,306.027L2537.12,298.763L2552.79,255.643L2538.38,229.304L2559.1,209.502L2576.73,212.066L2581.86,228.477L2620.44,238.256L2690.04,222.154Z"/>
    <path id="Irkutsk" d="M2767.97,521.002L2777.87,547.712L2775.57,598.099L2746.74,598.586L2730.43,591.683L2688.84,591.306L2671.03,608.817L2638.31,613.03L2512.58,593.914L2484.19,600.653L2469.97,545.979L2458.83,540.609L2467.62,517.038L2499.56,508.456L2532.43,485.086L2534.78,456.692L2549.56,425.287L2620.08,386.123L2646.41,385.993L2658.4,460.571L2698.94,479.118L2709.83,496.746L2767.97,521.002Z"/>
    <path id="Mongolia" d="M2771.93,630.78L2783.93,653.539L2825.13,659.618L2812.93,693.917L2856.84,730.59L2854.99,782.697L2827.18,782.89L2821.13,755.708L2805.92,756.234L2773.58,730.426L2768.99,750.294L2772.75,791.173L2715.44,775.777L2700.72,780.262L2687.31,771.301L2552.99,739.76L2495.87,682.292L2504.82,652.077L2485.22,600.6L2512.44,594.274L2638.33,613.356L2671.08,608.981L2688.85,591.683L2729.95,591.879L2746.74,598.801L2775.56,598.407L2771.93,630.78Z"/>
    <path id="Japan" d="M3037.75,541.681L3054.83,567.564L3025.21,588.526L3005.44,618.208L3039.18,630.697L3044.91,682.881L3065.45,701.044L3065.47,725.79L3003.24,757.927L3005.35,773.387L2982.58,791.419L2963.34,790.143L2961.59,804.631L2922.73,834.124L2906.07,810.703L2914.2,790.752L2907.68,770.823L2932.16,728.953L2942.14,725.823L2942.68,693.894L2980.61,673.594L2961.31,646.082L2962.97,621.795L2947.97,587.743L2961.76,577.955L2961.57,545.773L3001.86,549.513L3037.75,541.681Z"/>
    <path id="Siberia" d="M2537.09,227.715L2552.38,255.801L2536.49,298.4L2512.37,305.529L2498.5,328.844L2523.56,368.705L2548.21,425.674L2534.16,456.438L2531.99,484.503L2499.4,508.271L2467.41,516.549L2458.41,540.81L2469.34,545.932L2483.76,600.672L2503.43,650.457L2495.44,681.882L2469.41,670.036L2449.25,634.803L2410.81,627.133L2352.2,540.863L2330.03,529.612L2320.68,515.382L2327.85,477.066L2286.56,376.674L2261.35,353.969L2262.85,314.508L2239.12,302.205L2237.9,273.339L2251.08,270.395L2252.72,252.177L2272.69,225.805L2307.45,195.298L2416.71,176.484L2434.73,195.91L2459.88,200.09L2458.82,223.998L2515.16,219.951L2537.09,227.715Z"/>
    <path id="Ural" d="M2196.05,284.922L2222.84,323.432L2260.83,330.232L2260.34,353.965L2285.99,377.073L2326.87,476.446L2320.26,515.6L2329.8,530.049L2351.74,541.052L2408.72,625.377L2383.99,645.659L2379.33,681.663L2364.89,685.017L2343.34,654.968L2278.29,655.841L2199.51,574.893L2216.18,513.297L2191.61,466.571L2171.71,457.479L2162.29,412.694L2191.65,363.934L2181.21,317.331L2170.41,298.71L2150.01,289.887L2158.68,247.969L2203.1,254.444L2196.05,284.922Z"/>
    <path id="Western-Europe" serif:id="Western Europe" d="M1547.91,709.902L1577.76,761.885L1565.6,776.633L1570.1,813.432L1569.31,852.169L1547.91,866.468L1519.9,860.183L1501.25,895.707L1491.84,895.597L1495.2,941.681L1466.85,1016.03L1444.47,1008.78L1414.03,1022.25L1344.68,989.052L1327.31,956.616L1354.57,900.296L1343.95,870.55L1355.19,849.574L1373.6,854.151L1426.43,851.404L1446.35,800.197L1400.91,764.609L1421,754.277L1451.82,762.103L1464.29,736.646L1505.65,736.596L1506.2,726.961L1529.19,700.476L1547.91,709.902Z"/>
    <path id="Southern-Europe" serif:id="Southern Europe" d="M1839.29,817.004L1764.97,965.194L1776.25,979.844L1733.03,982.02L1723.52,961.99L1716.8,916.019L1696.72,884.616L1696.81,872.974L1663.73,843.766L1640.69,851.675L1681.84,913.018L1672.08,920.267L1655.98,899.774L1656.43,924.803L1628.62,943.337L1624.23,930.941L1634.84,909.751L1597.54,874.274L1587.48,849.606L1570.58,849.648L1571.23,813.723L1566.65,776.896L1577.74,763.192L1614.63,753.411L1648.24,751.94L1687.68,738.272L1718.47,747.363L1745.24,747.503L1778.56,709.902L1794.71,710.951L1819.93,743.308L1818.86,786.307L1839.29,817.004Z"/>
    <path id="East-Africa" serif:id="East Africa" d="M1936.7,1188.32L2018.56,1299.55L2019,1335.12L2113.43,1350.62L2095.07,1433.71L2023.23,1525.02L1994.75,1542.38L1969.2,1608.5L1986.03,1632.9L1934.94,1662.47L1906.42,1646.19L1879.34,1610.94L1860.66,1601.12L1858.65,1548.17L1912.45,1450.49L1900.11,1430.67L1857.29,1409.42L1825.74,1367.39L1790.61,1351.16L1781.15,1329.41L1778.56,1296.18L1785.06,1283.06L1786.46,1222.93L1808.96,1188.62L1936.7,1188.32Z"/>
    <path id="South-Africa" serif:id="South Africa" d="M1934.89,1662.81L1985.44,1633.64L1994.75,1709.85L1931.96,1793.8L1932.83,1825.01L1865.3,1923.12L1794.77,1976.92L1706.85,2015.31L1682.66,1987.03L1679.87,1882.3L1669.24,1874.1L1661.58,1809.7L1617.7,1732.93L1645.63,1675.56L1638.22,1613.21L1650.66,1591.01L1640.93,1554.15L1661.05,1551.48L1749.91,1595.05L1769.98,1640.02L1810.61,1651.76L1837.51,1640.97L1838.19,1613.54L1860.05,1601.91L1878.71,1611.26L1906.02,1646.79L1934.89,1662.81Z"/>
    <path id="Congo" d="M1900.28,1431.31L1911.55,1450.67L1857.49,1547.51L1859.28,1600.4L1837.01,1613.47L1836.18,1639.97L1811.01,1650.32L1771.62,1639.32L1751.08,1594.48L1661.03,1550.61L1640.7,1553.41L1605.34,1508.16L1614.02,1453.81L1657.97,1452.91L1682.44,1458.29L1698.27,1443.99L1710.3,1398.46L1759.84,1360.49L1780.75,1329.88L1790.23,1351.47L1825.21,1367.65L1856.86,1409.69L1900.28,1431.31Z"/>
    <path id="Madagascar" d="M2208.93,1626.75L2224.43,1663.57L2211.69,1680.41L2220.59,1692.62L2189.5,1810.54L2159.26,1847.58L2140.92,1911.26L2080.02,1933.63L2053.41,1853.3L2077.98,1828.32L2081.34,1782.17L2075.28,1754.34L2083.49,1718.67L2152.19,1695.88L2208.93,1626.75Z"/>
    <path id="Middle-East" serif:id="Middle East" d="M2253.84,1000.19L2259.25,1040.64L2227.79,1066.89L2185.03,1064.3L2138.98,1028.83L2114.24,1043.95L2148.25,1086.97L2165.88,1120.06L2196.91,1100.9L2232.01,1142.32L2197.81,1238.78L2121.81,1274.64L2075.01,1245.19L2072.09,1222.27L1979.42,1185.05L1910.85,1060.73L1931.53,1042.94L1925.78,960.813L1898.78,978.956L1818.4,981.976L1783.88,927.907L1813.66,868.938L1874.21,868.121L1889.29,854.227L1929.77,883.198L1971.98,861.482L2004.38,854.59L2057.69,829.235L2114.47,872.192L2142.13,864.503L2188.6,864.722L2221.5,890.169L2214.6,936.26L2253.84,1000.19Z"/>
    <path id="India" d="M2547.53,960.34L2579.24,988.661L2542.84,1057.68L2529.57,1057.14L2502.13,1076.15L2464.21,1182.38L2483.36,1237.73L2432.53,1280.3L2351.89,1164.13L2346.24,1126.48L2321.84,1104.54L2320.32,1072.03L2260.36,1040.95L2254.65,999.762L2215.11,936.424L2222.28,890.335L2275.73,861.513L2319.75,850.642L2364.79,821.514L2397.13,839.199L2411.69,897.868L2456.24,935.169L2496.67,940.435L2547.53,960.34Z"/>
    <path id="Siam" d="M2694.2,996.06L2759.53,1051.35L2752.34,1057.7L2709.39,1035.89L2706.62,1078.19L2767.65,1130.85L2794.15,1178.97L2782.15,1218.1L2745.02,1259.86L2672.98,1309.66L2637.65,1266.06L2629.17,1200.48L2581.4,1175.99L2544.04,1056.67L2580.12,989.301L2594.5,974.986L2641.54,1001.46L2694.2,996.06Z"/>
    <path id="Western-Australia" serif:id="Western Australia" d="M2951.46,1760.75L3102.32,1768.25L3119.79,1949.26L3129.77,1954.59L3137.62,2043.48L3093.21,2011.6L3086.27,1962.01L3045.22,1944.5L3017.02,1901.76L2954.96,1887.12L2909.63,1918.3L2909.76,1946.15L2779.37,1985.29L2744.81,1954.29L2709.39,1810.94L2715.59,1715.61L2763.95,1680.41L2802.78,1682.45L2884.12,1582.85L2929.35,1556.75L2951.46,1760.75Z"/>
    <path id="Eastern-Australia" serif:id="Eastern Australia" d="M3164.28,1620.24L3189.76,1659.27L3212.35,1666.08L3243.08,1730.2L3274.65,1771.78L3274.54,1896.68L3254.98,1917.8L3243.17,2007.8L3207.26,2009.25L3183.54,2041.69L3138.11,2043.48L3130.43,1954.04L3120.81,1949L3102.99,1766.71L2953.1,1759.86L2929.38,1547.19L2961.95,1523.34L3024.03,1521.93L3035.85,1534.61L3011.87,1568.93L3047.61,1582.21L3068.03,1611.51L3099.34,1564.3L3137.62,1563.53L3150.62,1574.82L3164.28,1620.24Z"/>
    <path id="Indonesia" d="M2855.83,1400.15L2804.39,1615.21L2747.73,1607.13L2723.1,1631.12L2691.19,1624.08L2667.1,1603.75L2667.29,1591.04L2703.33,1560.12L2764.69,1562.22L2782.98,1530.68L2760.98,1499.32L2729.43,1515.6L2697.05,1515.11L2663.74,1490.07L2643.89,1528.14L2622.92,1558.08L2600.37,1560.84L2553.4,1481.9L2537.07,1472.08L2519.3,1440.76L2464.95,1399.08L2468.45,1355.42L2522.24,1369.94L2600.43,1423.17L2646.72,1421.02L2643.67,1402.57L2671.05,1396.44L2704.09,1357.31L2701.22,1341.64L2722.36,1317.5L2749.55,1329.55L2764.37,1359.37L2749.49,1373.23L2758.64,1396.62L2744.55,1423.94L2814.3,1413.25L2833.67,1394.06L2855.83,1400.15Z"/>
    <path id="Iceland" d="M1571.93,424.258L1540.22,448.249L1497.17,450.449L1456.92,478.393L1428.37,463.133L1393.47,467.778L1396.68,453.942L1369.43,436.457L1374.68,395.813L1398.93,372.138L1438.13,363.198L1437.89,377.105L1448.92,383.857L1463.74,357.272L1491,365.828L1532.93,348.097L1571.05,379.208L1571.93,424.258Z"/>
    <path id="Great-Britain" serif:id="Great Britain" d="M1395.61,488.427L1406.9,515.431L1397.93,554.273L1420.72,569.077L1445.94,595.232L1451.28,623.364L1470.68,622.64L1489.98,631.723L1483.27,650.466L1450.91,694.36L1364.76,694.38L1315.78,709.902L1343.43,664.577L1342.58,654.865L1322.98,649.924L1314.02,667.4L1284.15,668.739L1262.77,681.231L1242.47,677.557L1240.89,661.623L1257.53,650.195L1254.57,632.682L1255.8,603.826L1287.37,588.736L1309.62,587.489L1331.72,615.025L1322.61,624.88L1322.99,649.856L1342.55,654.828L1342.31,652.18L1358.07,639.748L1351.79,619.676L1365.81,609.069L1356.08,579.652L1336.3,561.512L1318.07,518.198L1345.85,502.815L1357.1,483.548L1395.61,488.427Z"/>
    <path id="Greenland" d="M1299.34,144.383L1370.2,156.219L1370.89,172.621L1407.28,179.509L1434.26,197.631L1411.06,226.723L1431.94,240.558L1405.05,320.425L1326.04,363.616L1251.75,383.825L1255.23,434.968L1211.66,467.778L1166.55,412.503L1165.83,348.393L1042.02,262.559L1079.27,230.911L1167.52,170.551L1299.34,144.383Z"/>
    <path id="Brazil" d="M1063.13,1162.38L1106.26,1178.11L1109.07,1188.65L1146.24,1190L1205.5,1217.92L1217.64,1274.25L1201.5,1294.04L1177.04,1295.45L1155.03,1334.42L1141.87,1412.37L1123.4,1417.6L1081.67,1471.26L1017.22,1488.16L986.392,1564.03L958.781,1589.22L934.893,1624.08L913.203,1603.46L913.911,1558.88L926.521,1513.66L908.985,1433.99L907.403,1428.2L861.991,1337.85L841.007,1336.59L782.827,1296.94L746.32,1308.55L689.56,1268.68L685.449,1247.73L702.364,1215.21L757.295,1194.21L764.876,1170.61L783.114,1148.74L941.824,1146.17L999.005,1139.85L1034.45,1108.5L1063.13,1162.38Z"/>
    <path id="Argentina" d="M925.586,1512.81L926.154,1513.93L913.477,1558.23L912.925,1603.74L934.688,1624.33L910.166,1650.24L876.174,1667.32L866.08,1691.68L848.412,1706.64L791.95,1718.2L753.986,1797.03L721.3,1832.2L719.037,1937.51L751.619,1973.14L752.809,1987.51L781.236,1987.51L781.167,2001.1L722.321,2020.42L627.937,1940.59L592.268,1854.26L631.167,1754.6L629.275,1700.68L650.7,1681.96L661.237,1586.4L685.449,1534.4L684.146,1503.75L705.38,1415.45L729.143,1425.26L747.161,1445.96L819.567,1464.38L881.998,1513.88L925.586,1512.81Z"/>
    <path id="Central-America" serif:id="Central America" d="M642.777,820.789L627.271,867.195L624.417,900.27L649.474,926.849L670.93,922.441L682.493,903.149L722.321,902.382L692.382,938.381L697.289,945.034L670.737,1002.76L687.582,1024.46L685.513,1066.3L675.564,1068.66L652.483,1092.94L615.465,1050.74L586.924,972.876L526.992,945.458L521.78,918.582L493.973,904.239L477.972,865.057L485.194,825.897L481.247,795.68L492.685,768.535L530.905,780.085L566.145,810.216L642.777,820.789Z"/>
    <path id="Ontario" d="M865.353,402.054L855.907,443.936L880.071,467.451L944.128,458.081L959.338,484.063L938.001,497.358L938.756,516.196L929.271,525.827L940.269,542.543L940.137,588.404L960.318,604.549L958.525,626.518L880.385,640.869L871.576,596.389L827.737,565.82L745.708,565.455L794.891,402.098L865.353,402.054Z"/>
    <path id="Quebec" d="M1124.4,428.513L1135.47,455.019L1133.35,476.653L1178.25,494.216L1179.57,512.3L1172.38,527.195L1147.16,542.173L1117.74,561.949L1092,566.743L1074.67,562.126L1048.59,577.737L1074.73,585.223L1098.15,612.213L1090.96,634.869L1073.13,640.869L1039.81,608.343L1015.96,620.184L958.75,626.416L960.659,605.209L960.497,604.498L959.864,603.76L940.451,588.159L940.586,542.63L966.541,507.555L967.289,498.88L1000.13,457.921L994.297,433.976L1019.9,417.6L1019.33,392.965L1057.1,393.822L1084.19,427.595L1085.68,447.142L1107.79,428.809L1124.4,428.513Z"/>
    <path id="Alaska" d="M546.467,291.119L522.366,394.27L544.504,400.715L551.277,427.696L549.099,472.973L538.985,483.048L527.929,494.216L506.878,437.649L478.769,416.082L428.597,418.265L394.159,440.884L381.144,415.865L352.587,415.385L330.565,392.367L364.807,355.795L385.999,323.55L422.608,284.877L453.105,273.228L522.865,274.761L546.467,291.119Z"/>
    <path id="Alaska1" serif:id="Alaska" d="M3422.38,293.39L3398.28,396.541L3420.42,402.986L3427.19,429.967L3425.01,475.244L3414.9,485.319L3403.84,496.487L3382.79,439.92L3354.68,418.352L3304.51,420.536L3270.07,443.155L3257.06,418.136L3228.5,417.656L3206.48,394.638L3240.72,358.066L3261.91,325.821L3298.52,287.148L3329.02,275.498L3398.78,277.032L3422.38,293.39Z"/>
    <path id="Northwest-Territory" serif:id="Northwest Territory" d="M963.336,231.467L975.676,233.101L967.038,257.105L940.927,276.343L940.796,297.568L992.379,300.032L1002.05,327.757L977.688,331.584L955.992,353.684L935.589,353.236L866.773,401.064L544.041,400.073L523.036,393.98L547.131,291.723L577.572,289.468L611.071,303.231L657.657,292.066L665.292,283.901L708.926,279.408L779.948,319.956L838.13,304.131L886.295,304.552L905.001,295.617L905.399,278.405L944.437,240.2L963.336,231.467Z"/>
    <path id="Alberta" d="M794.352,402.008L744.545,565.653L549.293,565.82L548.611,534.087L528.089,495L550.056,473.099L552.18,429.178L545.075,400.675L794.352,402.008Z"/>
    <path id="Western-United-States" serif:id="Western United States" d="M799.982,566.237L754.093,691.083L716.634,703.032L678.676,739.62L643.047,820.49L566.509,809.879L531.02,779.778L492.757,768.441L484.365,722.893L497.991,659.595L548.734,566.732L799.982,566.237Z"/>
    <path id="Eastern-United-States" serif:id="Eastern United States" d="M1039.84,608.808L1073.49,641.656L1060.01,661.451L1042.91,672.043L1000.99,671.853L994.348,693.363L980.763,705.732L936.256,726.175L929.872,748.784L882.683,792.361L882.463,815.098L870.72,863.654L851.504,873.624L834.529,863.345L837.921,843.57L820.965,821.619L801.25,821.189L764.674,812.97L678.684,824.322L665.394,847.008L627.927,866.476L643.314,820.49L679.315,739.582L717.101,703.093L754.384,691.251L800.658,566.237L827.501,566.237L871.431,596.534L880.18,641.073L958.726,626.722L1016.09,620.553L1039.84,608.808Z"/>
    <path id="Venezuela" d="M1034.45,1105.24L997.691,1139.07L945.232,1145.46L782.597,1148.21L764.024,1170.88L757.112,1193.55L723.809,1206.57L719.718,1191.62L666.766,1179.68L634.613,1160.54L652.779,1093.27L675.584,1068.96L685.858,1066.51L692.382,1065.52L693.492,1051.38L753.216,1030.28L764.624,1027.6L780.41,1014.18L804.801,1012.73L863.436,1035.18L887.639,1033.22L952.446,1076.99L1014.28,1092.94L1034.45,1105.24Z"/>
    <path id="Peru" d="M701.941,1214.82L685.158,1247.68L689.247,1268.88L746.195,1308.84L782.762,1297.26L841.162,1337.26L860.526,1338.36L906.959,1428.53L925.586,1512.38L882.092,1513.66L819.638,1463.89L747.871,1445.65L729.432,1424.85L688.437,1407.98L685.28,1387.71L632.768,1342.88L625.582,1312.18L607.079,1290.49L595.98,1252.44L609.06,1217.62L605.05,1200.5L630.939,1159.12L665.841,1180.01L719.354,1192.01L723.503,1206.76L701.941,1214.82Z"/>
    <path id="New-Guinea" serif:id="New Guinea" d="M3115.37,1345.51L3118.13,1367.56L3149.35,1380.84L3168.95,1417.91L3178.11,1478.14L3036.75,1455.11L2974.58,1421.8L2943.6,1371.24L2910.91,1365.27L2916.96,1340.12L2895.98,1309.88L2905.71,1282.77L2959.63,1294.34L3002.18,1285.51L3047.06,1299.42L3064.48,1329.52L3115.37,1345.51Z"/>
    <path id="North-Africa" serif:id="North Africa" d="M1761.04,1213.1L1785.92,1220.92L1784.72,1282.99L1778.2,1295.95L1780.72,1329.26L1759.19,1360.46L1710.1,1397.62L1697.64,1443.86L1682.37,1457.92L1658.35,1452.03L1613.68,1453.04L1607.81,1422.96L1578.9,1417.05L1561.65,1399.19L1504.65,1399.47L1474.67,1409.8L1416.22,1410.12L1309.9,1280.68L1334.32,1257.7L1340.5,1195.94L1332.81,1176.23L1412.3,1037.84L1414.19,1023.12L1443.69,1009.89L1467.01,1017.1L1574.3,977.852L1618.34,976.637L1663.11,1031.99L1637.09,1057.57L1637.22,1076.71L1626.24,1093.94L1650.56,1169.19L1738.78,1183.27L1761.04,1213.1Z"/>
    <path id="Egypt" d="M1910.64,1060.84L1959.23,1149.46L1935.62,1156.66L1934.79,1187.8L1807.43,1188.32L1787.07,1220.68L1761.5,1212.49L1739.03,1182.77L1650.86,1168.73L1627.06,1093.95L1638.01,1076.73L1637.59,1057.79L1663.29,1032.18L1679.65,1032.08L1714.93,1055.78L1779.36,1042.33L1800.46,1056.87L1891.75,1068.3L1910.64,1060.84Z"/>
    <path id="Northern-Europe" serif:id="Northern Europe" d="M1796.42,584.195L1808.31,655.313L1775.53,685.717L1776.12,711.522L1744.75,746.898L1719.06,746.944L1687.56,737.413L1648.54,751.444L1614.38,752.969L1578.89,762.176L1548.86,709.902L1562.95,657.263L1582.08,657.277L1616.8,604.744L1617.57,578.186L1599.81,563.855L1615.28,526.691L1647.81,524.332L1695.97,536.41L1710.24,561.998L1744.01,559.748L1796.42,584.195Z"/>
    <path id="Scandinavia" d="M1848.29,299.07L1831.69,351.538L1849.18,432.054L1829.99,470.665L1811.33,463.498L1771.83,473.358L1755.87,423.555L1733.56,446.271L1742.11,484.958L1731.51,510.908L1709.96,519.712L1695.91,535.482L1647.98,523.713L1614.98,525.715L1607.16,472.291L1592.13,454.253L1635.47,405.698L1671.91,398.937L1707.24,340.71L1791.2,298.92L1848.29,299.07Z"/>
    <path id="Ukraine" d="M2150.8,290.42L2170.14,298.92L2179.57,318.24L2189.42,365.332L2161.95,412.582L2171.42,457.913L2191.3,466.799L2215.56,513.454L2198.95,575.064L2179.72,591.728L2173.3,613.663L2073.89,621.924L2052.52,649.503L2051.87,684.435L2080.66,701.695L2090.75,737.455L2121.41,773.834L2121.05,800.763L2061.3,826.702L2014.35,848.434L1967.17,826.062L1969.7,815.667L1944.78,796.152L1917.84,820.382L1889.11,815.83L1870.58,774.797L1845.72,774.641L1831,802.732L1820,786.423L1820.53,742.952L1795.12,710.359L1776.86,709.55L1776.26,685.928L1809.03,655.756L1796.97,583.9L1764.15,568.682L1759.89,538.253L1779.33,512.493L1800.14,495.799L1831.64,482.355L1830.37,471.302L1849.9,431.877L1832.22,352.01L1848.84,299.251L1921.99,298.92L1958.67,323.176L1940.5,340.699L1900.65,355.221L1900.57,373.669L1921.01,389.774L1937.8,368.768L1997.11,325.9L2035.85,326.643L2068.63,316.312L2101.27,317.422L2150.8,290.42Z"/>
    <path id="Afghanistan" d="M2277.8,656.484L2343.12,655.415L2366.08,687.551L2373.13,734.747L2351.38,766.532L2334.81,779.053L2327.28,801.933L2343.91,833.396L2320.31,849.081L2275.5,860.515L2222.36,889.708L2187.95,863.469L2140.69,863.431L2148.94,828.476L2121.96,801.547L2122.37,773.109L2091.55,737.155L2081.72,701.542L2052.64,684.185L2053.22,650.182L2074.11,622.29L2173.51,613.932L2180,591.766L2199.19,575.254L2277.8,656.484Z"/>
    <path id="China" d="M2686.18,772.059L2700.3,780.706L2715.35,776.366L2773.1,791.785L2832.69,882.683L2820.07,959.36L2760.22,1051.36L2694.29,995.147L2642.15,1000.47L2594.58,974.497L2579.87,988.931L2548.89,960.333L2497.38,939.63L2457.11,934.231L2412.71,897.832L2398.16,838.236L2364.59,820.496L2344.51,833.043L2327.85,801.863L2335.09,780.54L2351.8,767.759L2374.42,734.221L2367.06,684.939L2379.65,681.951L2384.25,645.66L2407.76,627.133L2448.47,635.004L2469.2,670.253L2494.07,681.568L2552.25,740.619L2686.18,772.059Z"/>
</svg>
